<svg width="83" height="295" fill="none" xmlns="http://www.w3.org/2000/svg"><path d="M29.75 1.002a.75.75 0 0 0-1.5-.004l1.5.004Zm-1.5-.004-.007 3.063 1.5.003.007-3.062-1.5-.004Zm-.02 9.188-.015 6.125 1.5.003.014-6.125-1.5-.003Zm-.029 12.25-.014 6.125 1.5.003.014-6.125-1.5-.003Zm-.027 12.25-.014 6.125 1.5.003.014-6.125-1.5-.003Zm-.028 12.25-.014 6.125 1.5.003.014-6.125-1.5-.003Zm-.028 12.25-.014 6.125 1.5.003.014-6.125-1.5-.003Zm-.028 12.25-.014 6.125 1.5.003.014-6.125-1.5-.003Zm-.027 12.25-.014 6.125 1.5.003.014-6.125-1.5-.003Zm-.028 12.25-.014 6.125 1.5.003.014-6.125-1.5-.003Zm-.028 12.25-.014 6.125 1.5.003.014-6.125-1.5-.003Zm-.028 12.25-.014 6.125 1.5.003.014-6.125-1.5-.003Zm-.028 12.25-.014 6.125 1.5.003.014-6.125-1.5-.003Zm-.027 12.25-.014 6.125 1.5.003.014-6.125-1.5-.003Zm-.028 12.25-.014 6.125 1.5.003.014-6.125-1.5-.003Zm-.028 12.25-.014 6.125 1.5.003.014-6.125-1.5-.003Zm-.028 12.25-.014 6.125 1.5.003.014-6.125-1.5-.003Zm-.027 12.25-.014 6.125 1.5.003.014-6.125-1.5-.003Zm-.028 12.25-.014 6.125 1.5.003.014-6.125-1.5-.003Zm-.028 12.25-.007 3.062 1.5.004.007-3.063-1.5-.003Z" fill="#E3E3E3"/><g filter="url(#a)"><circle cx="29" cy="236" r="26" fill="#fff"/></g><path fill-rule="evenodd" clip-rule="evenodd" d="M21.707 226.293a1 1 0 1 0-1.414 1.414L25.586 233l-5.293 5.293a1 1 0 1 0 1.414 1.414l6-6a1 1 0 0 0 0-1.414l-6-6ZM29 240a1 1 0 0 0 0 2h8a1 1 0 0 0 0-2h-8Z" fill="url(#b)"/><defs><linearGradient id="b" x1="29" y1="226" x2="29" y2="242" gradientUnits="userSpaceOnUse"><stop stop-color="#FCA061"/><stop offset="1" stop-color="#FF602C"/></linearGradient><filter id="a" x="0" y="207" width="83" height="88" filterUnits="userSpaceOnUse" color-interpolation-filters="sRGB"><feFlood flood-opacity="0" result="BackgroundImageFix"/><feColorMatrix in="SourceAlpha" values="0 0 0 0 0 0 0 0 0 0 0 0 0 0 0 0 0 0 127 0" result="hardAlpha"/><feOffset dx="1" dy="1"/><feGaussianBlur stdDeviation="2"/><feColorMatrix values="0 0 0 0 0.988235 0 0 0 0 0.627451 0 0 0 0 0.380392 0 0 0 0.1 0"/><feBlend in2="BackgroundImageFix" result="effect1_dropShadow_463_37"/><feColorMatrix in="SourceAlpha" values="0 0 0 0 0 0 0 0 0 0 0 0 0 0 0 0 0 0 127 0" result="hardAlpha"/><feOffset dx="4" dy="6"/><feGaussianBlur stdDeviation="3.5"/><feColorMatrix values="0 0 0 0 0.988235 0 0 0 0 0.627451 0 0 0 0 0.380392 0 0 0 0.09 0"/><feBlend in2="effect1_dropShadow_463_37" result="effect2_dropShadow_463_37"/><feColorMatrix in="SourceAlpha" values="0 0 0 0 0 0 0 0 0 0 0 0 0 0 0 0 0 0 127 0" result="hardAlpha"/><feOffset dx="9" dy="12"/><feGaussianBlur stdDeviation="4.5"/><feColorMatrix values="0 0 0 0 0.988235 0 0 0 0 0.627451 0 0 0 0 0.380392 0 0 0 0.05 0"/><feBlend in2="effect2_dropShadow_463_37" result="effect3_dropShadow_463_37"/><feColorMatrix in="SourceAlpha" values="0 0 0 0 0 0 0 0 0 0 0 0 0 0 0 0 0 0 127 0" result="hardAlpha"/><feOffset dx="17" dy="22"/><feGaussianBlur stdDeviation="5.5"/><feColorMatrix values="0 0 0 0 0.988235 0 0 0 0 0.627451 0 0 0 0 0.380392 0 0 0 0.01 0"/><feBlend in2="effect3_dropShadow_463_37" result="effect4_dropShadow_463_37"/><feBlend in="SourceGraphic" in2="effect4_dropShadow_463_37" result="shape"/></filter></defs></svg>
