<svg width="711" height="616" viewBox="0 0 711 616" fill="none" xmlns="http://www.w3.org/2000/svg">
<g clip-path="url(#clip0_58_1350)">
<line y1="60.1795" x2="1572.02" y2="60.1795" stroke="black" stroke-opacity="0.12" stroke-width="0.5" stroke-dasharray="2 2"/>
<line y1="98.6093" x2="1572.02" y2="98.6093" stroke="black" stroke-opacity="0.12" stroke-width="0.5" stroke-dasharray="2 2"/>
<line y1="137.04" x2="1572.02" y2="137.04" stroke="black" stroke-opacity="0.12" stroke-width="0.5" stroke-dasharray="2 2"/>
<line y1="175.469" x2="1572.02" y2="175.469" stroke="black" stroke-opacity="0.12" stroke-width="0.5" stroke-dasharray="2 2"/>
<line y1="213.899" x2="1572.02" y2="213.899" stroke="black" stroke-opacity="0.12" stroke-width="0.5" stroke-dasharray="2 2"/>
<line y1="252.329" x2="1572.02" y2="252.329" stroke="black" stroke-opacity="0.12" stroke-width="0.5" stroke-dasharray="2 2"/>
<line y1="290.758" x2="1572.02" y2="290.758" stroke="black" stroke-opacity="0.12" stroke-width="0.5" stroke-dasharray="2 2"/>
<line y1="329.188" x2="1572.02" y2="329.188" stroke="black" stroke-opacity="0.12" stroke-width="0.5" stroke-dasharray="2 2"/>
<line y1="367.618" x2="1572.02" y2="367.618" stroke="black" stroke-opacity="0.12" stroke-width="0.5" stroke-dasharray="2 2"/>
<line y1="406.048" x2="1572.02" y2="406.048" stroke="black" stroke-opacity="0.12" stroke-width="0.5" stroke-dasharray="2 2"/>
<line y1="444.477" x2="1572.02" y2="444.477" stroke="black" stroke-opacity="0.12" stroke-width="0.5" stroke-dasharray="2 2"/>
<line y1="482.75" x2="1572.02" y2="482.75" stroke="black" stroke-opacity="0.12" stroke-width="0.5" stroke-dasharray="2 2"/>
<line y1="521.023" x2="1572.02" y2="521.023" stroke="black" stroke-opacity="0.12" stroke-width="0.5" stroke-dasharray="2 2"/>
<line y1="559.295" x2="1572.02" y2="559.295" stroke="black" stroke-opacity="0.12" stroke-width="0.5" stroke-dasharray="2 2"/>
<line x1="0.250023" y1="22" x2="0.249998" y2="602" stroke="black" stroke-opacity="0.12" stroke-width="0.5" stroke-dasharray="2 2"/>
<line x1="42.25" y1="22" x2="42.25" y2="602" stroke="black" stroke-opacity="0.12" stroke-width="0.5" stroke-dasharray="2 2"/>
<line x1="85.25" y1="22" x2="85.25" y2="602" stroke="black" stroke-opacity="0.12" stroke-width="0.5" stroke-dasharray="2 2"/>
<line x1="127.25" y1="22" x2="127.25" y2="602" stroke="black" stroke-opacity="0.12" stroke-width="0.5" stroke-dasharray="2 2"/>
<line x1="169.25" y1="22" x2="169.25" y2="602" stroke="black" stroke-opacity="0.12" stroke-width="0.5" stroke-dasharray="2 2"/>
<line x1="211.25" y1="22" x2="211.25" y2="602" stroke="black" stroke-opacity="0.12" stroke-width="0.5" stroke-dasharray="2 2"/>
<line x1="254.25" y1="22" x2="254.25" y2="602" stroke="black" stroke-opacity="0.12" stroke-width="0.5" stroke-dasharray="2 2"/>
<line x1="296.25" y1="22" x2="296.25" y2="602" stroke="black" stroke-opacity="0.12" stroke-width="0.5" stroke-dasharray="2 2"/>
<line x1="338.25" y1="22" x2="338.25" y2="602" stroke="black" stroke-opacity="0.12" stroke-width="0.5" stroke-dasharray="2 2"/>
<line x1="380.25" y1="22" x2="380.25" y2="602" stroke="black" stroke-opacity="0.12" stroke-width="0.5" stroke-dasharray="2 2"/>
<line x1="423.25" y1="22" x2="423.25" y2="602" stroke="black" stroke-opacity="0.12" stroke-width="0.5" stroke-dasharray="2 2"/>
<line x1="465.25" y1="22" x2="465.25" y2="602" stroke="black" stroke-opacity="0.12" stroke-width="0.5" stroke-dasharray="2 2"/>
<line x1="507.25" y1="22" x2="507.25" y2="602" stroke="black" stroke-opacity="0.12" stroke-width="0.5" stroke-dasharray="2 2"/>
<line x1="550.25" y1="22" x2="550.25" y2="602" stroke="black" stroke-opacity="0.12" stroke-width="0.5" stroke-dasharray="2 2"/>
<line x1="592.25" y1="22" x2="592.25" y2="602" stroke="black" stroke-opacity="0.12" stroke-width="0.5" stroke-dasharray="2 2"/>
<line x1="634.25" y1="22" x2="634.25" y2="602" stroke="black" stroke-opacity="0.12" stroke-width="0.5" stroke-dasharray="2 2"/>
<line x1="676.25" y1="22" x2="676.25" y2="602" stroke="black" stroke-opacity="0.12" stroke-width="0.5" stroke-dasharray="2 2"/>
<rect x="-16" y="22" width="727" height="580" fill="url(#paint0_radial_58_1350)"/>
</g>
<path d="M359 616V383.5" stroke="url(#paint1_linear_58_1350)" stroke-width="12"/>
<path d="M146.5 361.5L152.5 361.5L152.5 361.73L152.482 361.96L146.5 361.5ZM140.5 334C140.5 330.686 143.186 328 146.5 328C149.814 328 152.5 330.686 152.5 334L140.5 334ZM164 381L164 387L164 381ZM140.5 361.5L140.5 334L152.5 334L152.5 361.5L140.5 361.5ZM152.482 361.96C152.302 364.308 152.768 367.813 154.451 370.509C155.883 372.801 158.452 375 164 375L164 387C154.348 387 147.917 382.699 144.274 376.866C140.882 371.437 140.198 365.192 140.518 361.04L152.482 361.96ZM164 375L357.5 375L357.5 387L164 387L164 375Z" fill="url(#paint2_linear_58_1350)"/>
<path d="M571.447 361.5L568.447 361.5L568.447 361.615L568.455 361.73L571.447 361.5ZM574.447 334C574.447 332.343 573.103 331 571.447 331C569.79 331 568.447 332.343 568.447 334L574.447 334ZM553.947 381L553.947 384L553.947 381ZM574.447 361.5L574.447 334L568.447 334L568.447 361.5L574.447 361.5ZM568.455 361.73C568.671 364.529 568.15 368.719 566.04 372.098C564.055 375.276 560.521 378 553.947 378L553.947 384C562.573 384 568.038 380.224 571.129 375.277C574.093 370.531 574.722 364.971 574.438 361.27L568.455 361.73ZM553.947 378L361.447 378L361.447 384L553.947 384L553.947 378Z" fill="url(#paint3_linear_58_1350)"/>
<path d="M355 333.5C355 331.015 357.015 329 359.5 329C361.985 329 364 331.015 364 333.5H355ZM355 410V333.5H364V410H355Z" fill="url(#paint4_linear_58_1350)"/>
<circle cx="359" cy="381" r="8" fill="#3D3D3D"/>
<path d="M359 0V188.5" stroke="url(#paint5_linear_58_1350)" stroke-width="12"/>
<path d="M146.5 282L146.5 210.5C146 204 148.8 191 164 191C179.2 191 298.667 191 357.5 191" stroke="url(#paint6_linear_58_1350)" stroke-width="12"/>
<path d="M571.447 282L571.447 210.5C571.947 204 569.147 191 553.947 191C538.747 191 420.28 191 361.447 191" stroke="url(#paint7_linear_58_1350)" stroke-width="6"/>
<path d="M359.5 188.5V269" stroke="url(#paint8_linear_58_1350)" stroke-width="9"/>
<circle cx="359" cy="191" r="8" fill="#FFC8A1"/>
<rect x="132" y="268" width="30" height="30" rx="15" fill="#FCA061"/>
<rect x="132" y="268" width="30" height="30" rx="15" stroke="#FCA061" stroke-width="2"/>
<g clip-path="url(#clip1_58_1350)">
<path d="M147 284.5C147.398 284.5 147.779 284.342 148.061 284.061C148.342 283.779 148.5 283.398 148.5 283C148.5 282.602 148.342 282.221 148.061 281.939C147.779 281.658 147.398 281.5 147 281.5C146.602 281.5 146.221 281.658 145.939 281.939C145.658 282.221 145.5 282.602 145.5 283C145.5 283.398 145.658 283.779 145.939 284.061C146.221 284.342 146.602 284.5 147 284.5Z" fill="white"/>
<path d="M147 275C149.122 275 151.157 275.843 152.657 277.343C154.157 278.843 155 280.878 155 283C155 285.122 154.157 287.157 152.657 288.657C151.157 290.157 149.122 291 147 291C144.878 291 142.843 290.157 141.343 288.657C139.843 287.157 139 285.122 139 283C139 280.878 139.843 278.843 141.343 277.343C142.843 275.843 144.878 275 147 275ZM140.5 283C140.5 284.724 141.185 286.377 142.404 287.596C143.623 288.815 145.276 289.5 147 289.5C148.724 289.5 150.377 288.815 151.596 287.596C152.815 286.377 153.5 284.724 153.5 283C153.5 281.276 152.815 279.623 151.596 278.404C150.377 277.185 148.724 276.5 147 276.5C145.276 276.5 143.623 277.185 142.404 278.404C141.185 279.623 140.5 281.276 140.5 283Z" fill="white"/>
</g>
<path d="M129.03 318V308.545H132.4C133.136 308.545 133.745 308.679 134.228 308.947C134.711 309.215 135.073 309.581 135.313 310.046C135.553 310.507 135.673 311.028 135.673 311.606C135.673 312.188 135.552 312.711 135.308 313.176C135.068 313.637 134.705 314.004 134.219 314.275C133.736 314.542 133.128 314.676 132.395 314.676H130.078V313.467H132.266C132.731 313.467 133.108 313.387 133.397 313.227C133.687 313.063 133.899 312.842 134.034 312.562C134.17 312.282 134.237 311.963 134.237 311.606C134.237 311.249 134.17 310.932 134.034 310.655C133.899 310.378 133.685 310.161 133.393 310.004C133.103 309.847 132.722 309.769 132.248 309.769H130.457V318H129.03ZM137.995 318V308.545H141.365C142.098 308.545 142.706 308.672 143.189 308.924C143.675 309.176 144.038 309.526 144.278 309.972C144.519 310.415 144.639 310.928 144.639 311.509C144.639 312.088 144.517 312.597 144.274 313.037C144.034 313.474 143.671 313.814 143.184 314.058C142.701 314.301 142.093 314.422 141.361 314.422H138.808V313.194H141.232C141.693 313.194 142.069 313.128 142.358 312.996C142.65 312.863 142.864 312.671 143 312.419C143.135 312.166 143.203 311.863 143.203 311.509C143.203 311.152 143.134 310.843 142.995 310.581C142.86 310.32 142.646 310.12 142.353 309.981C142.064 309.84 141.684 309.769 141.213 309.769H139.422V318H137.995ZM142.663 313.734L144.999 318H143.374L141.084 313.734H142.663ZM155.237 313.273C155.237 314.282 155.052 315.15 154.683 315.876C154.314 316.6 153.807 317.157 153.164 317.548C152.524 317.935 151.796 318.129 150.981 318.129C150.162 318.129 149.431 317.935 148.788 317.548C148.148 317.157 147.643 316.598 147.274 315.872C146.904 315.145 146.72 314.279 146.72 313.273C146.72 312.263 146.904 311.397 147.274 310.674C147.643 309.947 148.148 309.39 148.788 309.002C149.431 308.612 150.162 308.416 150.981 308.416C151.796 308.416 152.524 308.612 153.164 309.002C153.807 309.39 154.314 309.947 154.683 310.674C155.052 311.397 155.237 312.263 155.237 313.273ZM153.824 313.273C153.824 312.503 153.7 311.855 153.45 311.329C153.204 310.8 152.866 310.4 152.435 310.129C152.007 309.855 151.522 309.718 150.981 309.718C150.436 309.718 149.95 309.855 149.522 310.129C149.094 310.4 148.756 310.8 148.506 311.329C148.26 311.855 148.137 312.503 148.137 313.273C148.137 314.042 148.26 314.692 148.506 315.221C148.756 315.747 149.094 316.147 149.522 316.421C149.95 316.692 150.436 316.827 150.981 316.827C151.522 316.827 152.007 316.692 152.435 316.421C152.866 316.147 153.204 315.747 153.45 315.221C153.7 314.692 153.824 314.042 153.824 313.273ZM160.726 318H157.666V308.545H160.823C161.75 308.545 162.545 308.735 163.21 309.113C163.875 309.489 164.384 310.029 164.738 310.734C165.095 311.435 165.274 312.277 165.274 313.259C165.274 314.244 165.093 315.09 164.733 315.798C164.376 316.506 163.859 317.051 163.182 317.432C162.505 317.811 161.687 318 160.726 318ZM159.092 316.754H160.648C161.368 316.754 161.967 316.618 162.444 316.347C162.921 316.073 163.278 315.678 163.515 315.161C163.752 314.641 163.87 314.007 163.87 313.259C163.87 312.517 163.752 311.888 163.515 311.371C163.281 310.854 162.931 310.461 162.467 310.194C162.002 309.926 161.425 309.792 160.736 309.792H159.092V316.754Z" fill="#AAAAAA"/>
<rect x="344" y="268" width="30" height="30" rx="15" fill="#58A6FF"/>
<rect x="344" y="268" width="30" height="30" rx="15" stroke="#58A6FF" stroke-width="2"/>
<g clip-path="url(#clip2_58_1350)">
<path d="M359 284.5C359.398 284.5 359.779 284.342 360.061 284.061C360.342 283.779 360.5 283.398 360.5 283C360.5 282.602 360.342 282.221 360.061 281.939C359.779 281.658 359.398 281.5 359 281.5C358.602 281.5 358.221 281.658 357.939 281.939C357.658 282.221 357.5 282.602 357.5 283C357.5 283.398 357.658 283.779 357.939 284.061C358.221 284.342 358.602 284.5 359 284.5Z" fill="white"/>
<path d="M359 275C361.122 275 363.157 275.843 364.657 277.343C366.157 278.843 367 280.878 367 283C367 285.122 366.157 287.157 364.657 288.657C363.157 290.157 361.122 291 359 291C356.878 291 354.843 290.157 353.343 288.657C351.843 287.157 351 285.122 351 283C351 280.878 351.843 278.843 353.343 277.343C354.843 275.843 356.878 275 359 275ZM352.5 283C352.5 284.724 353.185 286.377 354.404 287.596C355.623 288.815 357.276 289.5 359 289.5C360.724 289.5 362.377 288.815 363.596 287.596C364.815 286.377 365.5 284.724 365.5 283C365.5 281.276 364.815 279.623 363.596 278.404C362.377 277.185 360.724 276.5 359 276.5C357.276 276.5 355.623 277.185 354.404 278.404C353.185 279.623 352.5 281.276 352.5 283Z" fill="white"/>
</g>
<path d="M334.713 311.029C334.663 310.592 334.46 310.254 334.103 310.013C333.746 309.77 333.297 309.649 332.755 309.649C332.367 309.649 332.032 309.71 331.749 309.833C331.466 309.953 331.246 310.12 331.089 310.332C330.935 310.541 330.858 310.78 330.858 311.048C330.858 311.272 330.91 311.466 331.015 311.629C331.123 311.792 331.263 311.929 331.435 312.04C331.61 312.148 331.798 312.239 331.998 312.312C332.198 312.383 332.391 312.442 332.575 312.488L333.498 312.728C333.8 312.802 334.109 312.902 334.426 313.028C334.743 313.154 335.037 313.32 335.308 313.527C335.579 313.733 335.797 313.988 335.964 314.293C336.133 314.598 336.218 314.962 336.218 315.387C336.218 315.923 336.079 316.398 335.802 316.814C335.528 317.229 335.13 317.557 334.606 317.797C334.086 318.037 333.457 318.157 332.718 318.157C332.01 318.157 331.398 318.045 330.881 317.82C330.364 317.595 329.959 317.277 329.667 316.864C329.374 316.449 329.213 315.956 329.182 315.387H330.613C330.641 315.729 330.752 316.013 330.946 316.241C331.143 316.466 331.393 316.634 331.698 316.744C332.006 316.852 332.343 316.906 332.709 316.906C333.112 316.906 333.471 316.843 333.785 316.717C334.102 316.587 334.351 316.409 334.533 316.181C334.714 315.95 334.805 315.681 334.805 315.373C334.805 315.093 334.725 314.864 334.565 314.685C334.408 314.507 334.194 314.359 333.923 314.242C333.655 314.125 333.352 314.022 333.014 313.933L331.897 313.628C331.139 313.422 330.539 313.119 330.096 312.719C329.656 312.319 329.436 311.789 329.436 311.131C329.436 310.586 329.584 310.11 329.879 309.704C330.175 309.298 330.575 308.982 331.079 308.758C331.584 308.53 332.154 308.416 332.788 308.416C333.428 308.416 333.992 308.529 334.482 308.753C334.974 308.978 335.362 309.287 335.645 309.681C335.928 310.072 336.076 310.521 336.088 311.029H334.713ZM338.106 309.773V308.545H345.423V309.773H342.473V318H341.051V309.773H338.106ZM347.371 318H345.857L349.26 308.545H350.908L354.31 318H352.796L350.123 310.263H350.049L347.371 318ZM347.625 314.298H352.537V315.498H347.625V314.298ZM362.279 311.532C362.19 311.252 362.07 311.001 361.919 310.78C361.772 310.555 361.595 310.364 361.388 310.207C361.182 310.047 360.947 309.926 360.682 309.843C360.421 309.76 360.133 309.718 359.819 309.718C359.286 309.718 358.806 309.855 358.379 310.129C357.951 310.403 357.612 310.804 357.363 311.334C357.117 311.86 356.994 312.505 356.994 313.268C356.994 314.034 357.118 314.682 357.367 315.212C357.617 315.741 357.958 316.143 358.392 316.417C358.826 316.69 359.32 316.827 359.874 316.827C360.388 316.827 360.836 316.723 361.218 316.513C361.602 316.304 361.899 316.009 362.109 315.627C362.321 315.242 362.427 314.79 362.427 314.27L362.796 314.339H360.091V313.162H363.807V314.238C363.807 315.032 363.638 315.721 363.3 316.306C362.964 316.887 362.499 317.337 361.905 317.654C361.315 317.971 360.638 318.129 359.874 318.129C359.019 318.129 358.268 317.932 357.621 317.538C356.978 317.144 356.477 316.586 356.116 315.863C355.756 315.136 355.576 314.275 355.576 313.277C355.576 312.523 355.681 311.846 355.89 311.246C356.1 310.646 356.393 310.137 356.772 309.718C357.154 309.296 357.601 308.975 358.115 308.753C358.632 308.529 359.197 308.416 359.81 308.416C360.321 308.416 360.796 308.492 361.236 308.642C361.679 308.793 362.073 309.007 362.418 309.284C362.766 309.561 363.053 309.89 363.281 310.272C363.509 310.651 363.663 311.071 363.743 311.532H362.279ZM367.695 308.545V318H366.268V308.545H367.695ZM378.053 308.545V318H376.742L371.936 311.066H371.849V318H370.422V308.545H371.743L376.553 315.489H376.641V308.545H378.053ZM387.183 311.532C387.093 311.252 386.973 311.001 386.822 310.78C386.675 310.555 386.498 310.364 386.292 310.207C386.085 310.047 385.85 309.926 385.585 309.843C385.324 309.76 385.036 309.718 384.722 309.718C384.19 309.718 383.709 309.855 383.282 310.129C382.854 310.403 382.515 310.804 382.266 311.334C382.02 311.86 381.897 312.505 381.897 313.268C381.897 314.034 382.021 314.682 382.271 315.212C382.52 315.741 382.862 316.143 383.295 316.417C383.729 316.69 384.223 316.827 384.777 316.827C385.291 316.827 385.739 316.723 386.121 316.513C386.505 316.304 386.802 316.009 387.012 315.627C387.224 315.242 387.33 314.79 387.33 314.27L387.7 314.339H384.994V313.162H388.711V314.238C388.711 315.032 388.541 315.721 388.203 316.306C387.867 316.887 387.403 317.337 386.809 317.654C386.218 317.971 385.541 318.129 384.777 318.129C383.922 318.129 383.171 317.932 382.525 317.538C381.881 317.144 381.38 316.586 381.02 315.863C380.659 315.136 380.479 314.275 380.479 313.277C380.479 312.523 380.584 311.846 380.793 311.246C381.003 310.646 381.297 310.137 381.675 309.718C382.057 309.296 382.505 308.975 383.018 308.753C383.536 308.529 384.1 308.416 384.713 308.416C385.224 308.416 385.699 308.492 386.139 308.642C386.582 308.793 386.976 309.007 387.321 309.284C387.669 309.561 387.957 309.89 388.184 310.272C388.412 310.651 388.566 311.071 388.646 311.532H387.183Z" fill="#AAAAAA"/>
<rect x="556" y="268" width="30" height="30" rx="15" fill="#FFB480"/>
<rect x="556" y="268" width="30" height="30" rx="15" stroke="#FFB480" stroke-width="2"/>
<g clip-path="url(#clip3_58_1350)">
<path d="M571 284.5C571.398 284.5 571.779 284.342 572.061 284.061C572.342 283.779 572.5 283.398 572.5 283C572.5 282.602 572.342 282.221 572.061 281.939C571.779 281.658 571.398 281.5 571 281.5C570.602 281.5 570.221 281.658 569.939 281.939C569.658 282.221 569.5 282.602 569.5 283C569.5 283.398 569.658 283.779 569.939 284.061C570.221 284.342 570.602 284.5 571 284.5Z" fill="white"/>
<path d="M571 275C573.122 275 575.157 275.843 576.657 277.343C578.157 278.843 579 280.878 579 283C579 285.122 578.157 287.157 576.657 288.657C575.157 290.157 573.122 291 571 291C568.878 291 566.843 290.157 565.343 288.657C563.843 287.157 563 285.122 563 283C563 280.878 563.843 278.843 565.343 277.343C566.843 275.843 568.878 275 571 275ZM564.5 283C564.5 284.724 565.185 286.377 566.404 287.596C567.623 288.815 569.276 289.5 571 289.5C572.724 289.5 574.377 288.815 575.596 287.596C576.815 286.377 577.5 284.724 577.5 283C577.5 281.276 576.815 279.623 575.596 278.404C574.377 277.185 572.724 276.5 571 276.5C569.276 276.5 567.623 277.185 566.404 278.404C565.185 279.623 564.5 281.276 564.5 283Z" fill="white"/>
</g>
<path d="M561.291 318H558.23V308.545H561.388C562.314 308.545 563.11 308.735 563.774 309.113C564.439 309.489 564.949 310.029 565.302 310.734C565.659 311.435 565.838 312.277 565.838 313.259C565.838 314.244 565.658 315.09 565.298 315.798C564.941 316.506 564.424 317.051 563.747 317.432C563.07 317.811 562.251 318 561.291 318ZM559.657 316.754H561.212C561.932 316.754 562.531 316.618 563.008 316.347C563.485 316.073 563.842 315.678 564.079 315.161C564.316 314.641 564.435 314.007 564.435 313.259C564.435 312.517 564.316 311.888 564.079 311.371C563.845 310.854 563.496 310.461 563.031 310.194C562.566 309.926 561.989 309.792 561.3 309.792H559.657V316.754ZM568.262 318V308.545H574.189V309.773H569.688V312.654H573.88V313.877H569.688V316.772H574.245V318H568.262ZM577.571 308.545L580.203 316.246H580.309L582.94 308.545H584.482L581.08 318H579.432L576.029 308.545H577.571Z" fill="#AAAAAA"/>
<circle cx="363" cy="24" r="3" fill="#FCA061"/>
<circle cx="354" cy="62" r="3" fill="#58A6FF"/>
<circle cx="359" cy="92" r="3" fill="#DF8648"/>
<circle cx="362" cy="114" r="3" fill="#FCA061"/>
<circle cx="355" cy="144" r="3" fill="#58A6FF"/>
<circle cx="359" cy="182" r="3" fill="#FCA061"/>
<circle cx="389" cy="190" r="3" fill="#DF8648"/>
<circle cx="570" cy="361" r="3" fill="#DF8648"/>
<circle cx="548" cy="383" r="3" fill="#DF8648"/>
<circle cx="510" cy="381" r="3" fill="#DF8648"/>
<circle cx="456" cy="379" r="3" fill="#DF8648"/>
<circle cx="386" cy="384" r="3" fill="#3D3D3D"/>
<circle cx="427" cy="196" r="3" fill="#DF8648"/>
<circle cx="481" cy="190" r="3" fill="#DF8648"/>
<circle cx="535" cy="193" r="3" fill="#DF8648"/>
<circle cx="565" cy="196" r="3" fill="#DF8648"/>
<circle cx="337" cy="190" r="3" fill="#FCA061"/>
<circle cx="357" cy="204" r="3" fill="#58A6FF"/>
<circle cx="357" cy="232" r="3" fill="#58A6FF"/>
<circle cx="362" cy="246" r="3" fill="#58A6FF"/>
<circle cx="357" cy="353" r="3" fill="#58A6FF"/>
<circle cx="363" cy="375" r="3" fill="#58A6FF"/>
<circle cx="307" cy="195" r="3" fill="#FCA061"/>
<circle cx="293" cy="191" r="3" fill="#FCA061"/>
<circle cx="271" cy="187" r="3" fill="#FCA061"/>
<circle cx="257" cy="191" r="3" fill="#FCA061"/>
<circle cx="227" cy="195" r="3" fill="#FCA061"/>
<circle cx="209" cy="187" r="3" fill="#FCA061"/>
<circle cx="187" cy="191" r="3" fill="#FCA061"/>
<circle cx="165" cy="188" r="3" fill="#FCA061"/>
<circle cx="183" cy="377" r="3" fill="#FCA061"/>
<circle cx="213" cy="386" r="3" fill="#FCA061"/>
<circle cx="227" cy="381" r="3" fill="#FCA061"/>
<circle cx="241" cy="378" r="3" fill="#FCA061"/>
<circle cx="263" cy="384" r="3" fill="#FCA061"/>
<circle cx="293" cy="381" r="3" fill="#FCA061"/>
<circle cx="315" cy="378" r="3" fill="#FCA061"/>
<circle cx="337" cy="384" r="3" fill="#FCA061"/>
<circle cx="356" cy="513" r="3" fill="#FCA061"/>
<circle cx="363" cy="535" r="3" fill="#FCA061"/>
<circle cx="359" cy="449" r="3" fill="#58A6FF"/>
<circle cx="354" cy="467" r="3" fill="#FCA061"/>
<circle cx="360" cy="481" r="3" fill="#FCA061"/>
<circle cx="363" cy="495" r="3" fill="#58A6FF"/>
<circle cx="175" cy="195" r="3" fill="#FCA061"/>
<g clip-path="url(#clip4_58_1350)">
<path d="M392.645 416.673V428.095C392.645 430.078 391.447 431.955 389.309 433.627C387.656 434.92 385.441 436.09 382.785 437.09C380.645 437.897 378.218 438.595 375.568 439.158C370.763 440.18 365.222 440.763 359.323 440.763C353.424 440.763 347.884 440.18 343.077 439.158C337.139 437.895 332.322 435.961 329.336 433.627C327.199 431.955 326 430.078 326 428.095V416.673H392.645Z" fill="#1F56A5"/>
<path d="M332.086 428.973C332.086 429.523 331.639 429.97 331.089 429.97C330.538 429.97 330.091 429.523 330.091 428.973C330.091 428.422 330.538 427.976 331.089 427.976C331.639 427.976 332.086 428.422 332.086 428.973Z" fill="white"/>
<path d="M337.711 431.334C337.711 431.884 337.265 432.331 336.714 432.331C336.163 432.331 335.717 431.884 335.717 431.334C335.717 430.783 336.163 430.337 336.714 430.337C337.265 430.337 337.711 430.783 337.711 431.334Z" fill="white"/>
<path d="M343.338 433.185C343.338 433.736 342.891 434.182 342.341 434.182C341.79 434.182 341.343 433.736 341.343 433.185C341.343 432.635 341.79 432.188 342.341 432.188C342.891 432.188 343.338 432.635 343.338 433.185Z" fill="white"/>
<path d="M392.645 405.371V416.792C392.645 418.776 391.447 420.653 389.309 422.324C387.656 423.617 385.441 424.787 382.785 425.788C380.645 426.595 378.218 427.292 375.568 427.855C370.763 428.878 365.222 429.46 359.323 429.46C353.424 429.46 347.884 428.878 343.077 427.855C337.139 426.593 332.322 424.659 329.336 422.324C327.199 420.653 326 418.776 326 416.792V405.371H392.645Z" fill="#3B81D0"/>
<path d="M332.086 417.67C332.086 418.221 331.639 418.667 331.089 418.667C330.538 418.667 330.091 418.221 330.091 417.67C330.091 417.12 330.538 416.673 331.089 416.673C331.639 416.673 332.086 417.12 332.086 417.67Z" fill="white"/>
<path d="M337.711 420.031C337.711 420.582 337.265 421.028 336.714 421.028C336.163 421.028 335.717 420.582 335.717 420.031C335.717 419.481 336.163 419.034 336.714 419.034C337.265 419.034 337.711 419.481 337.711 420.031Z" fill="white"/>
<path d="M343.338 421.883C343.338 422.434 342.891 422.88 342.341 422.88C341.79 422.88 341.343 422.434 341.343 421.883C341.343 421.332 341.79 420.886 342.341 420.886C342.891 420.886 343.338 421.332 343.338 421.883Z" fill="white"/>
<path d="M392.645 393.97V405.391C392.645 407.375 391.447 409.252 389.309 410.923C387.656 412.216 385.441 413.386 382.785 414.387C380.645 415.194 378.218 415.891 375.568 416.454C370.763 417.476 365.222 418.059 359.323 418.059C353.424 418.059 347.884 417.476 343.077 416.454C337.139 415.192 332.322 413.258 329.336 410.923C327.199 409.252 326 407.375 326 405.391V393.97H392.645Z" fill="#1F56A5"/>
<path d="M332.086 406.269C332.086 406.82 331.639 407.266 331.089 407.266C330.538 407.266 330.091 406.82 330.091 406.269C330.091 405.719 330.538 405.272 331.089 405.272C331.639 405.272 332.086 405.719 332.086 406.269Z" fill="white"/>
<path d="M337.711 408.63C337.711 409.181 337.265 409.627 336.714 409.627C336.163 409.627 335.717 409.181 335.717 408.63C335.717 408.08 336.163 407.633 336.714 407.633C337.265 407.633 337.711 408.08 337.711 408.63Z" fill="white"/>
<path d="M343.338 410.482C343.338 411.032 342.891 411.479 342.341 411.479C341.79 411.479 341.343 411.032 341.343 410.482C341.343 409.931 341.79 409.485 342.341 409.485C342.891 409.485 343.338 409.931 343.338 410.482Z" fill="white"/>
<path d="M392.645 382.667V394.089C392.645 396.072 391.447 397.949 389.309 399.621C387.656 400.913 385.441 402.083 382.785 403.084C380.645 403.891 378.218 404.588 375.568 405.152C370.763 406.174 365.222 406.757 359.323 406.757C353.424 406.757 347.884 406.174 343.077 405.152C337.139 403.889 332.322 401.955 329.336 399.621C327.199 397.949 326 396.072 326 394.089V382.667H392.645Z" fill="#3B81D0"/>
<path d="M392.645 382.667C392.645 385.98 389.301 388.995 383.827 391.252C381.221 392.327 378.133 393.229 374.693 393.91C370.094 394.82 364.867 395.335 359.323 395.335C353.779 395.335 348.551 394.82 343.952 393.91C333.284 391.798 326 387.556 326 382.667C326 375.671 340.92 370 359.323 370C363.389 370 367.286 370.277 370.889 370.784C383.592 372.571 392.645 377.217 392.645 382.667Z" fill="#58A6FF"/>
<path d="M332.086 394.967C332.086 395.517 331.639 395.964 331.089 395.964C330.538 395.964 330.091 395.517 330.091 394.967C330.091 394.416 330.538 393.97 331.089 393.97C331.639 393.97 332.086 394.416 332.086 394.967Z" fill="white"/>
<path d="M337.711 397.328C337.711 397.878 337.265 398.325 336.714 398.325C336.163 398.325 335.717 397.878 335.717 397.328C335.717 396.777 336.163 396.331 336.714 396.331C337.265 396.331 337.711 396.777 337.711 397.328Z" fill="white"/>
<path d="M343.338 399.179C343.338 399.73 342.891 400.176 342.341 400.176C341.79 400.176 341.343 399.73 341.343 399.179C341.343 398.629 341.79 398.182 342.341 398.182C342.891 398.182 343.338 398.629 343.338 399.179Z" fill="white"/>
<path d="M412.804 436.154C409.298 441.88 403.84 446.514 397.449 449.192C391.058 446.514 385.6 441.88 382.094 436.154C378.701 430.613 378.469 420.438 379.331 412.718C386.923 412.742 392.668 411.371 397.449 405.152C402.23 411.371 407.975 412.742 415.568 412.718C416.43 420.438 416.197 430.613 412.804 436.154Z" fill="#FCA061"/>
<path d="M407.277 420.517C407.245 420.405 407.179 420.325 407.077 420.278C406.972 420.193 406.851 420.144 406.713 420.13C406.353 420.068 405.967 420.099 405.618 420.2C405.261 420.304 404.926 420.451 404.636 420.687C403.699 421.447 402.804 422.256 401.954 423.112C401.045 424.027 400.178 424.988 399.37 425.993C398.612 426.936 397.903 427.919 397.248 428.936C396.596 429.95 395.997 430.998 395.454 432.075C395.304 432.374 395.157 432.675 395.013 432.977C394.98 432.937 394.947 432.895 394.913 432.855C394.285 432.109 393.593 431.418 392.846 430.791C392.423 430.436 391.982 430.102 391.525 429.79C391.432 429.7 391.323 429.643 391.198 429.619C391.05 429.563 390.897 429.539 390.737 429.546C390.544 429.541 390.354 429.561 390.168 429.608C389.967 429.639 389.773 429.696 389.585 429.778C389.475 429.833 389.365 429.888 389.254 429.943C389.074 430.045 388.921 430.177 388.795 430.339C388.761 430.409 388.727 430.479 388.693 430.549C388.657 430.693 388.69 430.819 388.794 430.926C389.588 431.469 390.335 432.08 391.025 432.75C391.712 433.417 392.342 434.143 392.907 434.917C393.209 435.33 393.49 435.758 393.753 436.199C393.786 436.309 393.851 436.388 393.952 436.434C394.057 436.519 394.178 436.568 394.316 436.582C394.616 436.633 394.917 436.61 395.213 436.552C395.525 436.489 395.857 436.39 396.126 436.217C396.366 436.062 396.588 435.889 396.688 435.611C397.013 434.714 397.374 433.831 397.774 432.965C397.868 432.76 397.965 432.556 398.064 432.352C398.632 431.203 399.264 430.085 399.957 429.006C400.666 427.901 401.439 426.838 402.269 425.821C402.709 425.282 403.167 424.757 403.64 424.245C404.445 423.388 405.295 422.571 406.185 421.802C406.447 421.575 406.713 421.353 406.982 421.135C407.094 421.054 407.176 420.95 407.224 420.825C407.287 420.733 407.305 420.631 407.277 420.517Z" fill="white"/>
</g>
<defs>
<radialGradient id="paint0_radial_58_1350" cx="0" cy="0" r="1" gradientUnits="userSpaceOnUse" gradientTransform="translate(347.5 312) scale(363.5 290)">
<stop offset="0.75" stop-color="#FFF9F2" stop-opacity="0.2"/>
<stop offset="1" stop-color="#FFF9F2"/>
</radialGradient>
<linearGradient id="paint1_linear_58_1350" x1="359.5" y1="616" x2="359.5" y2="382" gradientUnits="userSpaceOnUse">
<stop stop-color="#FFE0CB" stop-opacity="0"/>
<stop offset="0.5" stop-color="#FFC7A1"/>
</linearGradient>
<linearGradient id="paint2_linear_58_1350" x1="164.5" y1="447.5" x2="354.5" y2="447.5" gradientUnits="userSpaceOnUse">
<stop stop-color="#FCA061"/>
<stop offset="0.771053" stop-color="#FFC8A1"/>
</linearGradient>
<linearGradient id="paint3_linear_58_1350" x1="556.447" y1="447.5" x2="366.447" y2="447.5" gradientUnits="userSpaceOnUse">
<stop stop-color="#FFB480"/>
<stop offset="0.244456" stop-color="#FFC8A1"/>
</linearGradient>
<linearGradient id="paint4_linear_58_1350" x1="360" y1="410" x2="360" y2="329.5" gradientUnits="userSpaceOnUse">
<stop offset="0.536975" stop-color="#FFC7A1"/>
<stop offset="1" stop-color="#58A6FF"/>
</linearGradient>
<linearGradient id="paint5_linear_58_1350" x1="359.5" y1="0" x2="359.5" y2="190" gradientUnits="userSpaceOnUse">
<stop stop-color="#FFE0CB" stop-opacity="0"/>
<stop offset="0.5" stop-color="#FFC7A1"/>
</linearGradient>
<linearGradient id="paint6_linear_58_1350" x1="164.5" y1="124.5" x2="354.5" y2="124.5" gradientUnits="userSpaceOnUse">
<stop stop-color="#FCA061"/>
<stop offset="0.504611" stop-color="#FFC7A1"/>
</linearGradient>
<linearGradient id="paint7_linear_58_1350" x1="556.447" y1="124.5" x2="366.447" y2="124.5" gradientUnits="userSpaceOnUse">
<stop stop-color="#FFB480"/>
<stop offset="0.504611" stop-color="#FFC8A1"/>
</linearGradient>
<linearGradient id="paint8_linear_58_1350" x1="360" y1="188.5" x2="360" y2="269" gradientUnits="userSpaceOnUse">
<stop offset="0.25" stop-color="#FFC8A1"/>
<stop offset="0.85" stop-color="#58A6FF"/>
</linearGradient>
<clipPath id="clip0_58_1350">
<rect width="711" height="572" fill="white" transform="translate(0 22)"/>
</clipPath>
<clipPath id="clip1_58_1350">
<rect width="16" height="16" fill="white" transform="translate(139 275)"/>
</clipPath>
<clipPath id="clip2_58_1350">
<rect width="16" height="16" fill="white" transform="translate(351 275)"/>
</clipPath>
<clipPath id="clip3_58_1350">
<rect width="16" height="16" fill="white" transform="translate(563 275)"/>
</clipPath>
<clipPath id="clip4_58_1350">
<rect width="90" height="79.2073" fill="white" transform="translate(326 370)"/>
</clipPath>
</defs>
</svg>
