<svg width="554" height="302" viewBox="0 0 554 302" fill="none" xmlns="http://www.w3.org/2000/svg">
<path d="M204.88 264.47L246.96 276.63L289.58 286.23L294.82 274.94L300.27 257.74L305.15 237.02L308.75 215.79M204.88 264.47L164.59 250.11M204.88 264.47L206.23 252.18L210.09 234.56L215.94 214.08L222.94 193.71L230.07 176.41L236.31 164.59L240.8 159.78M204.88 264.47L206.17 269.84M168.09 138.83L200.98 152.37L236.31 164.58L273.11 175.11L310.32 183.65L346.89 189.96L350.3 203.93L351.13 222.96L349.22 244.37L344.83 265.07L338.62 282.07L331.49 293L324.46 296.47M168.09 138.83L138.52 124.37M168.09 138.83L178.65 136.37M168.09 138.83L156.01 148.3L144.1 163.58L134.08 182.54L127.41 202.45L125.03 220.44L127.22 233.98L133.57 241.29M138.52 124.37L113 109.4L92.09 94.3301L76.17 79.5601L57.03 83.7101M138.52 124.37L151.63 123.21M138.52 124.37L124.01 132.52L110.13 146.64L98.89 164.77L91.91 184.31L90.17 202.45L93.84 216.65L102.31 225.02M57.03 83.7101L39.51 94.2401M57.03 83.7101L45.73 68.3801M57.03 83.7101L74.01 99.7801M39.51 94.2401L26.09 109.69M39.51 94.2401L27.79 77.8001M39.51 94.2401L57.31 111.48L80.99 129.1L110.14 146.63L144.11 163.58L182.06 179.43L222.95 193.7L265.6 205.94M26.09 109.69L18.65 127.88L18.2 146.24L24.71 162.23L42.07 180.26L59.67 194.15L65.26 198.56L75.47 208L94.78 220.24L102.32 225.02L127.95 238.37L133.6 241.31L164.77 254.78L168.53 256.4M26.09 109.69L14.16 92.3901L27.79 77.8001M26.09 109.69L44.36 127.83L68.77 146.36L98.9 164.78L134.1 182.56L173.48 199.17L215.95 214.08L260.29 226.83L305.16 237.03L349.22 244.39L391.18 248.73L429.87 249.98L464.29 248.2L493.65 243.55L517.38 236.27L535.13 226.66L530.35 207.38L519.23 190.51L503.35 178.41M40.13 41.2201L45.43 29.9001L64.32 29.8601L82.42 36.5101M40.13 41.2201V54.1201L45.73 68.3801M40.13 41.2201L59.69 40.3501L78.42 46.2201L93.75 57.9901L103.59 74.0201M40.13 41.2201L22.46 48.7101M45.73 68.3801L65.45 65.4401L84.21 69.3401L94.24 82.2901L104.75 88.8901L107.23 90.4501M45.73 68.3801L27.79 77.8001M74.01 99.7801L96.47 116.19L124 132.52L156 148.3L191.68 163.07L230.07 176.39L270.08 187.85L310.55 197.11L350.3 203.92L388.2 208.1L423.21 209.59M74.01 99.7801L92.08 94.3301L108.98 95.8101L115.15 99.8501L117.41 100.88L119.41 102.08L122.43 103.89M74.01 99.7801L57.3 111.48L44.34 127.82L36.98 146.48L36.21 164.81L42.06 180.25L53.62 190.74L56.56 193.06L65.86 200.41L75.46 208M61.55 165.47L91.92 184.31L127.43 202.47L167.19 219.39L210.1 234.55L254.91 247.46L300.28 257.73L344.84 265.07L387.28 269.3L426.42 270.36L461.25 268.32M427.53 298.52L440.37 296.22L448.11 294.83L454.17 293.75L469.67 290.24L482.54 279.65L490.95 263.34L493.66 243.54L490.24 223.03L481.18 204.73M481.18 204.73L467.8 191.2L442.99 194.46M481.18 204.73L502.89 198.67L519.24 190.5L530.08 180.52L535.4 169.04L535.35 156.38L530.19 142.86M481.18 204.73L454.44 208.44M442.99 194.46L414.11 195.39L402.76 187.93M442.99 194.46L454.44 208.44M442.99 194.46L429.21 187.15L415.03 187.39M24.7 162.22L13.36 144.91L6.47004 128.45L1.04004 111.86L1.20004 93.5601L1.88004 78.5701L6.01004 68.9701L9.11004 61.7701L15.46 49.0101L28.37 36.6001L39.5 26.3601L55.36 18.1101L70.46 12.6001L89.26 6.81006M128.23 109.57L112.99 109.4L96.47 116.2L80.98 129.11L68.75 146.35L61.54 165.46M453.3 180.26L457.62 178.27L466.54 174.15L475.62 166.58M475.62 166.58L480.46 157.79L481.12 148.01L477.73 137.48M475.62 166.58L460.57 174.62L459.3 175.3M475.62 166.58L494.59 164.47L499.6 154.92L500.05 144.32L496.11 132.93M477.73 137.48L470.51 126.45L459.74 115.14M477.73 137.48L496.12 132.94M477.73 137.48L461.83 147.82L450.62 162.52M459.74 115.14L445.73 103.78L428.84 92.5801M459.74 115.14L476.15 108.82M459.74 115.14L445.35 126.71L435.01 141.93M396.53 300.64L408.43 297.52L418.89 286.98L426.41 270.36L429.86 249.96L428.73 228.69L423.19 209.6M396.53 300.64L361.88 299.98M396.53 300.64L427.53 298.51L441.41 295.28L469.65 290.23L492.6 282.61L509.91 272.72L524.08 261.73L532.9 245.65L544.68 233.62L546.73 215.07L541.63 196.51L530.06 180.52L513.6 169.33L494.57 164.47L484.92 172.7L470.67 179.37L452.14 184.21L451.99 184.25L436.97 186.16L429.2 187.15L413.16 187.62L402.75 187.93L400.41 187.82M496.12 132.94L488.05 121.02L476.15 108.82M496.12 132.94L514.45 134.83L530.19 142.86M450.62 162.52L453.35 172.23L450.93 180.39L450.77 180.92M450.62 162.52L445.6 179.52L446.29 182.08M450.62 162.52L444.43 152.35L435.01 141.93M503.35 178.41L484.93 172.72L466.53 174.16M503.35 178.41L488.02 185.78L470.68 179.38L453.28 180.27M503.35 178.41L513.62 169.34L518.8 158.86M492.61 282.62L506.27 271.87L514.95 255.69L517.37 236.27L513.15 216.33L502.87 198.68L488.01 185.78L467.78 191.21L451.99 184.26L436.87 184.62L435.99 184.74M428.83 92.5801L416.67 105.39L407.6 121.16L402.89 137.65L403.17 152.55L408.33 163.82M341.43 182.9L373.25 186.52L400.41 187.82M400.41 187.82L415.03 187.39M415.03 187.39L426.84 185.9L435.44 184.81L436.01 184.74L436.89 184.62L439.48 183.84M439.48 183.84L440.84 183.49L445.88 182.19M439.48 183.84L431.36 174.54M445.88 182.19L446.29 182.08M445.88 182.19L445.6 179.53L439.48 169.21L430.14 158.65M446.29 182.08L450.78 180.92L452.53 180.47L453.24 180.29H453.29L453.31 180.27L459.31 175.3L464.01 167L464.82 157.77L461.84 147.83L455.27 137.41L445.35 126.72L432.38 115.98L416.68 105.39L398.6 95.1401L378.5 85.4001L356.77 76.3201L333.8 68.0501L309.97 60.7201L285.69 54.4501L261.36 49.3401L237.39 45.4801L214.18 42.9501L192.14 41.8201L171.68 42.1301L153.21 43.9001M153.21 43.9001L137.11 47.1401L123.77 51.8401L113.53 57.9401L106.72 65.3801L109.63 83.5901L107.48 89.7601L108 90.7001L108.8 91.4501M153.21 43.9001L154.21 62.1901L150.22 79.0201L141.84 92.0601L130.28 99.5601M153.21 43.9001L147.35 26.7101L137.46 13.0501L124.95 4.78006L111.58 2.98006M518.8 158.86L535.4 169.05L547.09 184.08L541.65 196.51L530.35 207.37L513.16 216.32L490.23 223.03L461.91 227.23M518.8 158.86L499.61 154.94L480.47 157.8L464.01 167.01L455.74 177.21L453.25 180.28M518.8 158.86L519.01 147.26M285.28 290.16L324.46 296.47M324.46 296.47L361.88 299.98M541.2 155.9L530.19 142.86M530.19 142.86L520.26 128.79L505.43 121.85L488.05 121.01L470.51 126.44L455.26 137.39L444.42 152.34L439.47 169.19L440.83 183.48M461.24 268.32L464.29 248.19L461.91 227.23M461.91 227.23L454.44 208.44M461.91 227.23L428.74 228.69L391.49 227.28M454.44 208.44L423.21 209.61L414.1 195.39L381.8 193.9L346.9 189.96L341.44 182.89L308.15 177.12L274.29 169.34L240.81 159.77L208.64 148.67L178.65 136.36L151.63 123.2L139.94 116.38L130.41 109.58L122.43 103.88L120.24 101.88L118.44 100.24M22.45 48.7201L22.16 62.5301L27.79 77.8001M265.6 205.94L308.75 215.79M265.6 205.94L260.28 226.82L254.9 247.46L250.24 264.88L246.95 276.63L245.47 281.2M265.6 205.94L270.09 187.86L273.12 175.11L274.3 169.35M308.75 215.79L351.12 222.96L391.49 227.28M308.75 215.79L310.55 197.12L310.32 183.64L308.14 177.12M391.49 227.28L391.17 248.71L387.27 269.3L380.36 286.1L371.47 296.78L361.88 299.98M391.49 227.28L388.19 208.11L381.79 193.89L373.24 186.51M487.69 100.17L475.44 95.3501L460.78 96.5901L445.72 103.79L432.37 115.99L422.62 131.48L417.83 148.08L418.62 163.46L424.81 175.52M105.79 86.9501L105.57 85.6501L103.59 74.0201M103.59 74.0201L104.35 83.7501M103.59 74.0201L106.72 65.3701L97.23 48.9201L82.42 36.5101M208.63 148.68L200.97 152.37L191.68 163.08L182.05 179.44L173.46 199.16L167.17 219.39L164.08 237.21L164.58 250.11M149.97 97.1801L160.25 89.8801L167.95 77.0201L171.96 60.3201L171.68 42.1101L167.13 24.9601L158.98 11.2901L148.4 2.97006L136.88 1.07007M102.87 21.5301L90.68 28.2401L82.42 36.5101M82.42 36.5101L78.43 46.2301L78.97 57.2401L90.82 65.6701L94.45 68.2501L99.45 79.4701M115.05 97.1601L121.96 87.3101L125.94 70.1701L123.77 51.8301L115.71 34.8301L102.87 21.5401M505.94 114.48L492.29 108.61L476.15 108.82M476.15 108.82L460.79 96.5801L442.35 84.5301L421.25 72.8601L397.9 61.7701L372.74 51.4201L346.2 41.9701L318.72 33.5601L290.74 26.3201L262.7 20.3701L235.05 15.8101L230.9 8.05006L225.48 6.55006L217.84 5.66006L201.12 3.71007L194.36 2.92006L164.66 1.06006M435.01 141.93L430.14 158.65M435.01 141.93L422.63 131.47L407.61 121.16L390.28 111.19L370.99 101.72L350.11 92.9101L328.01 84.9001L305.08 77.8201L281.71 71.7801L258.29 66.8901L235.21 63.2301L212.87 60.8801L191.66 59.9001L171.98 60.3201L154.22 62.1801L138.76 65.4701L125.96 70.1701L116.15 76.2301L112.16 93.5401L111.69 94.0801M430.14 158.65L431.36 174.54M430.14 158.65L417.84 148.07L402.9 137.66L385.65 127.6L366.44 118.06L345.64 109.21L323.62 101.18L300.77 94.1001L277.47 88.0801L254.11 83.2301L231.08 79.6301L208.78 77.3601L187.61 76.4801L167.96 77.0201L150.22 79.0101L134.77 82.4501L121.97 87.3101L112.15 93.5401L111.73 94.1201M431.36 174.54L436.84 184.53M431.36 174.54L418.63 163.44L403.18 152.54L385.35 142.04L365.5 132.1L344.01 122.89L321.27 114.55L297.66 107.21L273.58 101L249.43 96.0101L225.62 92.3401L202.55 90.0601L180.63 89.2301L160.26 89.8901L141.85 92.0601L125.78 95.7401L117.16 99.0801M465.97 86.1301L455.32 82.3001L432.36 69.6901L407.02 57.7101L380.04 46.3501L369.05 42.1501L354.09 36.8401L351.05 36.3401L346.19 41.9501L340.16 53.0101L333.79 68.0301L328 84.8801L323.62 101.15L321.26 114.53L321.22 123.19L323.46 126.04L345.71 134.23L349.53 135.63L368.8 143.93L374.2 146.25L390 154.21L397.03 157.75L408.78 164.71L414.16 167.9L424.85 175.48L435.46 184.78M323.45 126.06L321.2 125.36L296.41 117.64M296.41 117.64L295.75 117.47L268.84 110.53L241.18 104.84L213.87 100.67L187.36 98.1001L162.09 97.2001L149.31 97.6501L144.88 97.8101L130.26 99.5701L120.22 101.9M296.41 117.64L296.13 115.41L297.64 107.22L300.76 94.0901L305.07 77.8201L309.96 60.7201L314.73 45.2401L318.7 33.5701L321.33 27.2901L322.29 27.1501M162.1 97.1901L171.7 96.4201M171.7 96.4201L180.62 89.2201L187.6 76.4701L191.64 59.8901L192.14 41.8001L189.02 24.7701L182.74 11.2001L174.22 2.95006L164.66 1.06006M171.7 96.4201L195.06 97.2601M171.7 96.4201L155.95 96.9701L149.96 97.1801L144.89 97.7901M164.66 1.06006H136.89L111.58 2.96007L89.26 6.81006M441.27 72.5901L432.36 69.7001L421.24 72.8601L409.43 81.7301L398.59 95.1301L390.27 111.18L385.65 127.59L385.34 142.04L389.33 152.56L397 157.78M118.44 100.24L125.78 95.7301L134.77 82.4401L138.75 65.4601L137.12 47.1201L130.08 29.9801L118.61 16.4401L104.34 8.36006L89.26 6.81006M118.44 100.24L117.16 99.0701L115.06 97.1501L111.97 94.3201L111.74 94.1101L111.69 94.0601L108.81 91.4201L108.01 90.6701L107.37 90.0801L106.48 88.4301L105.95 87.7501L104.55 85.9501L99.47 79.4401L84.24 69.3101L78.99 57.2101L60.02 52.2601L40.17 54.1001L22.19 62.5001L8.59004 76.2901L1.23004 93.5401L6.75004 110.08L6.50004 128.43L18.22 146.21L36.24 164.78L60.37 183.69L90.2 202.42L125.07 220.43L164.11 237.18L206.25 252.14L250.26 264.85L294.83 274.91L338.63 282.04L380.38 286.07L418.91 286.95L453.23 284.74L482.55 279.62L506.29 271.83L524.11 261.7L535.85 249.58L544.72 233.58L550.35 219.92L552.31 201.83L551.97 187.39L549.4 178.82L546.87 170.39L541.22 155.87L530.55 140.81L520.27 128.77L505.96 114.45L498.38 108.51L487.72 100.15L479.71 94.9701L466 86.1101L458.15 81.8001L441.3 72.5601L434.14 69.1801L414.1 59.7101L408.08 57.2401L393.32 51.1901L384.89 47.7401L380.09 46.3301L351.1 36.3301L321.39 27.2601L291.15 19.4401L289.99 18.7501L270.3 14.5601L260.79 12.7601L257.56 11.8501L243.04 9.44006L230.77 7.70006L201.92 4.65005L174.26 2.93005H148.46L125 4.74007L104.39 8.34006L87.1 13.7501L70.5 12.5801L55.73 20.3001L45.48 29.8701L28.42 36.5801L22.51 48.6901L9.16004 61.7501L8.62004 76.2901L14.22 92.3701L6.79004 110.08L18.71 127.85L37.05 146.46L61.61 165.44L60.41 183.69L65.31 198.53L93.91 216.62L127.3 233.98L164.65 250.08L168.59 256.37L204.42 269.15L206.23 269.8L245.53 281.17L285.34 290.13L289.63 286.2L331.54 292.97L371.53 296.75L408.49 297.49L441.47 295.26L453.27 284.75L461.29 268.3L491 263.32L515.01 255.66L532.97 245.63L535.18 226.63L546.8 215.04L552.34 201.84L547.14 184.05L546.89 170.4L535.4 156.36L519.05 147.23L514.49 134.8L505.47 121.83L492.34 108.59L475.5 95.3301L455.37 82.2901L442.4 84.5101L428.88 92.5601L409.48 81.7101L387.96 71.4001L364.73 61.7801L340.2 53.0001L314.78 45.2001L288.89 38.5101L262.95 33.0301L237.38 28.8601L212.61 26.0801L189.07 24.7601L167.19 24.9501L147.4 26.6801L130.12 29.9701L115.76 34.8001L104.7 41.1301L97.28 48.8901L93.8 57.9701L94.49 68.2101L101.67 79.4501L104.4 83.7201L105.84 86.9301L106.51 88.4201M519 147.26L500.05 144.33L481.11 148.01L464.8 157.77L453.34 172.23L452.53 180.31L452.51 180.47M187.37 98.0901L195.06 97.2601M195.06 97.2601L202.54 90.0601L208.77 77.3601L212.85 60.8801L214.17 42.9401L212.55 26.1001L208.23 12.7401L201.86 4.68005L194.35 2.93005M195.06 97.2601L219.61 99.6501L244.92 103.53L270.57 108.81M414.06 59.7401L407.02 57.7201L397.89 61.7701L387.91 71.4201L378.49 85.3901L370.97 101.71L366.43 118.05L365.48 132.1L368.21 141.93M368.21 141.93L374.17 146.28M368.21 141.93L364.92 140.51L345.37 132.09L344 122.88L345.64 109.19L350.1 92.8901L356.77 76.3001L364.69 61.7901L372.73 51.4101L379.76 46.5501L384.84 47.7701M368.21 141.93L385.15 150.46L389.32 152.56L403.31 160.85L404.57 161.6L408.31 163.82L414.11 167.93M108.04 90.4701L109.63 83.5701L116.14 76.2301L113.53 57.9301L104.64 41.1601L90.67 28.2401L73.56 20.9701L55.68 20.3301L39.49 26.3701M213.88 100.66L219.6 99.6501L225.61 92.3401L231.07 79.6301L235.19 63.2401L237.38 45.4801L237.32 28.8901L235.04 15.8301M241.19 104.84L244.91 103.53L249.42 96.0201L254.09 83.2301L258.27 66.9001L261.35 49.3401L262.89 33.0701L262.68 20.3901L260.72 12.7901L257.49 11.8801M268.85 110.53L270.57 108.81M270.57 108.81L273.57 101L277.46 88.0701L281.7 71.7801L285.68 54.4401L288.84 38.5401L290.73 26.3301L291.1 19.4701M270.57 108.81L296.14 115.41L321.21 123.21L345.37 132.1L349.51 135.65M354.09 36.8601L351.34 36.0201L342.31 33.2601L322.29 27.1501M322.29 27.1501L299.54 21.2701L291.1 19.2801L260.78 13.0301L230.7 7.74007L225.46 6.57007M235.04 15.8201L208.24 12.7401L182.73 11.2101L158.98 11.3001L137.45 13.0401L118.6 16.4501L102.86 21.5301L87.04 13.7801L73.55 20.9701L64.3 29.8601L59.67 40.3501L59.98 52.2801L65.44 65.4401L76.15 79.5601L94.23 82.2901L104.99 92.1601L108.97 95.8101L113.9 98.7801L115.13 99.8501L118.14 102.37L128.21 109.57L139.92 116.4M289.93 18.7801L291.11 19.0901" stroke="#F68B1F" stroke-width="2" stroke-linecap="round" stroke-linejoin="round"/>
</svg>

