<svg width="515" height="362" viewBox="0 0 515 362" fill="none" xmlns="http://www.w3.org/2000/svg">
<path d="M220.35 356.17L260.74 352.63L301.21 344.98L340.61 333.42L377.82 318.3L376.91 306.15L372.56 289.96L365.36 272.02L356.35 254.93L346.83 241.15L338.17 232.58L331.55 230.3M193.21 256.78L186.47 261.61L180.37 272.96L175.8 289.37L173.43 308.55L173.63 327.74L176.35 344.16L181.17 355.52L187.38 360.32L224.82 360.95M167.12 253.98L157.92 258.51L149.11 269.49L141.95 285.49L137.49 304.28L136.39 323.16L138.79 339.42L144.3 350.78L152.1 355.76L187.39 360.31M63.2 99.84L49.69 117.97L39.95 136.73L34.3 155.77L33 174.72L36.26 193.16M36.26 193.16L44.17 210.68L56.74 226.83L73.85 241.18L95.24 253.32L120.51 262.87L149.12 269.5L180.39 272.97L213.54 273.12L247.69 269.9L281.91 263.37L315.27 253.7L346.85 241.17L375.83 226.15L401.46 209.07L423.15 190.43L440.43 170.74L453.01 150.53L460.74 130.3L463.6 110.53L461.71 91.64L455.29 74.02L444.64 57.99L430.13 43.81L412.19 31.7L391.26 21.81M36.26 193.16L53.9 189.14L71.22 190.59L85.81 197.26L95.71 208.17M36.26 193.16L20.78 202.1L9.64001 214.71L4.35999 229.19L5.59998 243.52M436.81 30.63L425.27 28.23L402.67 17.66L377.7 9.46999L374.17 8.57L357.24 5.18999L350.03 4.13L321.02 1.27L290.9 1.00999L287.17 6.14L284.28 16.69L282.66 31.26L282.54 47.79L283.95 63.92L286.68 77.35L290.32 86.23L294.35 89.43L317.81 89.99L340.34 92.69M96.61 207.7L92.69 194.16L82.76 182.75L68.1 175.07L50.7 172.25L33 174.71L17.48 182.11L6.31 193.39L9.63 214.7L18.28 235.03L32.3 253.87L51.58 270.7L75.86 285.01L104.7 296.34L137.49 304.29L173.44 308.55L211.63 308.92L251.02 305.32L290.51 297.81L328.98 286.6L365.35 272.02L398.62 254.52L427.94 234.63L452.61 212.95L472.11 190.09L486.12 166.68L494.51 143.32L497.29 120.55L494.64 98.88M96.61 207.7L96.89 196.79L96.98 193.17L93.1 179.68L96.84 165.06M96.61 207.7L97.5 211.81M387.88 108.59L381.05 98.74L365.45 90.73L347.84 84.52L328.59 80.19M412.85 19.46L404.77 16.89L386.14 10.96L377.4 9.6L367.77 14.25L358.58 24.36L351.14 38.57L346.52 54.87L345.37 70.95L347.82 84.54L353.48 93.78L368.29 99.04L371.7 100.25M144.5 124.07L161.4 112.74L158.02 99.43L151.36 84.7L142.34 70.65L132.25 59.29L122.54 52.2L114.55 50.32M144.5 124.07L129.68 136.53M144.5 124.07L143.63 134.54L138.6 140.77M144.5 124.07L141.02 110.75L133.61 96.41L123.29 83.1L111.54 72.71L100.03 66.7L90.37 65.85L83.85 70.18L73.06 78.78L67.78 82.99L61.19 88.24M129.68 136.53L117.25 149.92L107.49 164L100.66 178.51M129.68 136.53L128.32 147.47L122.3 154.55M129.68 136.53L126.1 123.19L118.01 109.28L106.52 96.78L93.26 87.47M100.66 178.51L96.98 193.18M100.66 178.51L98.31 191.11M100.66 178.51L96.84 165.06M494.66 98.89L479.35 92.64L461.68 91.63L444.14 96.01L429.19 105.15L418.9 117.73L414.61 131.99M375.24 324.79L378.19 323.21L407.74 307.36L411.9 304.47L436.36 287.48L441.64 282.71L457.32 268.55L460.43 265.74L466.76 258.09L470.76 252.62L486.64 232.8L490.26 226.53L500.79 208.29L503.88 199.26L509.17 183.81L510.77 169.9L505.68 155.75L494.51 143.33L478.78 134.42L460.7 130.29L442.83 131.5L427.67 137.84L417.28 148.36M102.74 223.55L89.13 218.74L73.06 219.85L56.74 226.81L42.48 238.7L32.3 253.85L27.64 270.11L29.1 285.19L36.39 297.02M513.44 145.79L508.41 132.03L497.31 120.56L481.64 113.03L463.58 110.51L445.68 113.36M445.68 113.36L430.45 121.15L419.96 132.74L415.59 146.49M445.68 113.36L442.85 131.49L435.59 150.01L423.92 168.47M445.68 113.36L444.15 96L438.46 79.77L428.86 64.97L415.68 51.85L399.3 40.61L380.13 31.41M102.19 221.4L98.77 217.73L92.48 210.98L78.23 205.27L61.35 205.14L44.16 210.67L29.09 221.13L18.27 235.04L13.2 250.43L14.53 265.14L21.98 277.17L25.44 281.95L29.29 287.26L36.38 297.05L49.78 309.12L56.17 314.87M497.3 88.49L486.87 78.73L472.19 73.65L455.26 74L438.45 79.76L424.13 90.13M424.13 90.13L414.29 103.62L410.24 118.33L412.45 132.24M424.13 90.13L429.2 105.14L430.44 121.15L427.69 137.84L420.89 154.84L410.08 171.76L400.77 180.03M424.13 90.13L415.46 76.41M484.2 69.48L474.64 60.55L460.51 56.41L444.61 57.97L428.85 64.96L415.46 76.41M415.46 76.41L406.3 90.7M415.46 76.41L403.47 64.22L388.51 53.75L370.94 45.16L351.15 38.56L329.56 34.02L306.59 31.58M406.3 90.7L402.62 105.81L404.85 119.66M406.3 90.7L414.28 103.62L418.9 117.72L419.95 132.74L417.29 148.36L413.75 157.14M406.3 90.7L395.21 79.2L381.32 69.3L364.97 61.15L346.53 54.86L326.38 50.51L304.92 48.14L282.54 47.77L259.65 49.37L236.65 52.91L213.93 58.31L191.88 65.49L170.89 74.33L151.34 84.69L133.59 96.4L117.99 109.27L104.87 123.09L94.54 137.62L87.26 152.6L83.27 167.74L82.74 182.73L85.79 197.25L92.47 210.96L99.04 219.02L102.73 223.54L106.31 226.45M386.15 10.96L377.7 9.46L350.03 4.12L342.31 9.1L335.15 19.53L329.57 34.02L326.39 50.52L326.05 66.68L328.59 80.21M500.8 208.28L502.28 194.64L497.18 180.1L486.14 166.7L470.68 156.35L452.99 150.53L435.58 150.03L420.89 154.86L412.85 162.42L410.89 164.27M93.25 87.47L77.78 103.35L65.48 120.08L56.68 137.36L51.67 154.87L50.68 172.25L53.88 189.14L61.34 205.14L73.04 219.86L88.86 232.91L103.74 230.67L116.43 234.67M96.84 165.06L87.28 152.61L73.25 142.91L56.7 137.35L39.95 136.71L25.36 141.07L14.94 149.77L8.16998 171.59L3 184.25M96.84 165.06L103.73 150.59M460.43 265.73L466.85 256.69L467.7 243.64M467.7 243.64L462.75 228.34L452.62 212.95L438.75 199.67L423.12 190.41L407.98 186.42L395.42 188.18M467.7 243.64L487.87 219.43L482.82 204.5L472.13 190.09L457.29 178.27L440.42 170.72L423.92 168.47M467.7 243.64L442.1 266.6M105.38 176.01L107.48 164L103.73 150.59M103.73 150.59L94.55 137.63L81.18 126.95L65.49 120.07L49.69 117.96L36 120.88L26.3 128.36M103.73 150.59L113.57 136.54L126.1 123.18L141.02 110.74L158.02 99.42L176.76 89.42L196.9 80.89M220.79 256.84L216.69 261.7L213.51 273.12L211.73 289.63L211.62 308.93L213.21 328.24L216.27 344.76L220.34 356.17M133.37 244.01L121.88 240.7L108.56 243.91L95.23 253.31L83.78 267.68L75.86 285L72.61 302.8L74.46 318.55L81.08 330.07L91.47 335.85L100.76 339.66L111.72 344.15L119.87 347.49M115.47 161.37L117.24 149.92L113.57 136.55L104.89 123.11L92.37 111.49L77.78 103.36L63.2 99.85M436.37 287.47L441.74 279.34L442.1 266.6M442.1 266.6L437.3 250.96L427.96 234.63L415.4 219.96L401.44 209.05L388.08 203.4L377.17 203.69M442.1 266.6L411.59 287.65L376.9 306.14L338.94 321.51L298.75 333.28L257.47 341.09L216.28 344.74L176.35 344.15L138.78 339.42L104.54 330.77L74.45 318.55L49.15 303.19L47.52 287.76L51.58 270.68L60.79 254.37L73.85 241.16L88.88 232.89L108.57 243.9L131.75 252.53L157.92 258.5L186.48 261.6L216.71 261.69L247.82 258.73L278.99 252.77L309.38 243.97L338.18 232.58L364.64 218.92L388.09 203.39L407.99 186.42L423.92 168.47M290.9 1L260.17 3.31M260.17 3.31L229.33 8.13L198.87 15.36L169.27 24.9L141 36.61L114.54 50.32L90.36 65.84L72.69 79.94L68.91 82.95L54.3 97.7L50.64 101.4L41.84 107.74M260.17 3.31L258.48 8.27L257.78 18.63L258.19 33.01M391.23 21.8L380.13 31.41M380.13 31.41L370.94 45.18L364.97 61.16L363.06 77.09L365.44 90.74L371.71 100.25L377.1 103.03M380.13 31.41L358.6 24.36L335.15 19.54L310.23 16.98L284.29 16.69L257.79 18.64L231.17 22.78L204.87 29.03L179.33 37.29L154.98 47.43L132.24 59.3L111.53 72.72L93.25 87.49L80.11 82.67L68.92 82.96L61.19 88.24M377.1 103.03L387.87 108.59L401.61 118.69L405.32 122.65L409.01 126.59M377.1 103.03L372.46 101.38L361.53 97.49L354.83 95.96L340.34 92.66L333.59 89.25L328.58 80.2L308.07 77.8L286.68 77.33L264.8 78.79L242.81 82.14L221.1 87.31L200.05 94.21L180.02 102.73L161.38 112.74L161.05 122.79L157.13 128.26L138.59 140.76L128.04 149.69L122.3 154.55M122.3 154.55L115.42 161.71M387.36 195.03L393.2 188.5L400.77 180.03M400.77 180.03L405.35 172.89L410.89 164.25L413.76 157.15L415.59 146.5L415.22 140.9L414.63 132L410.25 118.36L402.64 105.84L392.04 94.67L395.23 79.22L403.49 64.24L415.69 51.86L430.11 43.82L444.72 41.22L457.48 44.37L469.21 55.58L474.34 60.48L486.88 78.76L494.67 98.91L505.52 109.48L510.45 122.87L513.45 145.81L510.79 169.91L502.28 194.65L487.87 219.45L486.65 232.8L479.45 242.77L470.77 252.62L466.86 256.7L441.75 279.35L411.84 300.09L377.84 318.3L375.26 324.79L341.35 338.58L339.71 339.25L302.09 350.29L263.44 357.59L224.86 360.95L220.37 356.15L181.2 355.51L144.32 350.79L110.69 342.2L105.81 340.2L81.1 330.08L75.42 326.61L56.18 314.86L49.17 303.2L44.8 299.28L29.1 285.2L24.96 279.49L14.55 265.12L11.11 256.82L5.59998 243.5L3.71002 230.94L2.92999 225.76L2.20001 220.89L1 206.94L6.31 193.38L8.16998 171.58L19.09 161.61L34.3 155.75L51.69 154.85L68.82 159.05L83.29 167.74L93.11 179.67L92.7 194.14L95.72 208.15L97.51 211.8L102.21 221.38L104.46 224.14L106.34 226.44L116.46 234.65L125.73 239.77L133.38 244L144.47 248.09L149.75 250.04L167.13 253.97L193.22 256.77L220.8 256.83L249.17 254.12L277.58 248.69L305.28 240.68L331.55 230.3M331.55 230.3L355.71 217.85L377.17 203.68L387.37 195.02L395.43 188.18L395.87 187.69L399.09 184.08L410.09 171.76L423.92 168.47M61.19 88.24L58.54 90.91L47.79 101.76L41.86 107.74L31.16 121.92L26.3 128.37L18.46 143.15L14.94 149.78L10.06 161.56L8.63 166.14L6.44 173.17L2.98999 184.25L1 206.95L4.34998 229.18L13.21 250.42L27.64 270.13L47.53 287.77L72.61 302.81L102.44 314.75L136.39 323.17L173.64 327.73L213.23 328.22L254.07 324.55M254.07 324.55L295.02 316.78L334.9 305.13L372.57 289.95L407.01 271.7L437.31 250.95L462.76 228.33L482.83 204.49L497.19 180.08L505.71 155.73L508.43 132.01L505.53 109.45L497.32 88.48L491.76 80.41L484.22 69.48L474.66 60.55L473.55 59.28L466.7 52.74L457.51 44.35L451.07 40.07L436.84 30.62L429.38 27.14L412.89 19.45L402.7 17.64L391.26 21.78L367.81 14.23L342.33 9.09L315.3 6.38L287.2 6.11L258.51 8.25L229.7 12.74L201.24 19.5L173.59 28.42L147.21 39.36L122.55 52.17L100.04 66.67L80.12 82.63L63.21 99.81L50.67 101.37L36.02 120.86L25.38 141.06L19.1 161.6L17.5 182.08L20.79 202.07L29.12 221.1L42.5 238.69L60.82 254.36L83.81 267.65L111.06 278.14L141.98 285.46L175.84 289.33L211.78 289.58L248.83 286.13L285.97 279.05L322.16 268.54L356.4 254.89L387.76 238.52L415.45 219.92L438.8 199.63L457.33 178.23L470.73 156.29L478.84 134.37L481.69 112.98L479.4 92.59L472.24 73.61L460.56 56.37L444.77 41.16L425.33 28.19L412.22 31.65L399.36 40.57L388.57 53.73L381.38 69.27L378.79 85L381.11 98.72L394.36 108.41L404.92 119.64L409.09 126.56L412.51 132.22L415.27 140.86M254.07 324.55L251.03 305.31L248.79 286.17L247.67 269.89L247.81 258.73L249.16 254.13M254.07 324.55L257.47 341.1L260.74 352.62L263.42 357.59M407.74 307.35L411.82 300.09L411.59 287.66L406.99 271.72L398.63 254.53L387.7 238.57L375.79 226.14L364.61 218.94L355.69 217.87M321.02 1.25999L315.27 6.39999L310.22 16.98L306.59 31.58M306.59 31.58L304.92 48.15L305.44 64.32M306.59 31.58L282.66 31.25L258.19 33.01M305.44 64.32L308.07 77.79L312.41 86.72L317.82 89.96M305.44 64.32L326.04 66.67L345.37 70.94L363.05 77.08L378.72 85.02L392.02 94.65L394.29 108.43L401.62 118.69M305.44 64.32L283.95 63.9L261.97 65.4L239.88 68.78L218.06 73.97L196.9 80.89M177.57 117.24L180.29 112.43L180.03 102.74L176.76 89.43L170.9 74.35L163.28 59.64L154.98 47.42L147.2 39.39L141.01 36.61M339.69 339.25L340.61 333.41L338.95 321.52L334.89 305.14L328.99 286.6L322.11 268.58L315.24 253.69L309.36 243.98L305.27 240.68M199.5 107.86L200.95 103.6L200.06 94.21L196.9 80.89M196.9 80.89L191.89 65.5L185.74 50.23L179.33 37.27L173.58 28.44L169.28 24.9M302.07 350.29L301.21 344.97L298.75 333.29L295.01 316.79L290.52 297.81L285.92 279.1L281.89 263.36L278.98 252.78L277.57 248.7M258.19 33.01L259.66 49.39L261.98 65.41L264.81 78.8L267.75 87.7M258.19 33.01L233.6 36.81L209.31 42.58L185.73 50.23L163.27 59.63L142.32 70.64L123.27 83.09L106.5 96.78L92.35 111.49L81.16 126.96L73.22 142.92L68.79 159.07L68.07 175.07L71.19 190.59L78.21 205.27L89.1 218.75L103.73 230.67L121.86 240.71L138.46 246.84L143.13 248.57L149.72 250.06M267.75 87.7L270.39 90.98M267.75 87.7L290.33 86.22L312.41 86.73L333.6 89.26L353.5 93.78L361.54 97.5M267.75 87.7L245.07 91.14M270.39 90.98L294.36 89.41M270.39 90.98L246.32 94.63M222.55 100.29L222.67 96.48L221.11 87.32L218.06 73.99L213.93 58.34L209.31 42.6L204.86 29.03L201.22 19.54L198.87 15.38M229.34 8.13L229.68 12.77L231.17 22.77L233.61 36.81L236.66 52.92L239.89 68.79L242.83 82.14L245.07 91.14M245.07 91.14L246.32 94.63M245.07 91.14L222.68 96.47L200.96 103.6L180.3 112.42L161.07 122.78L143.63 134.52L131.82 144.5L128.32 147.46L119.9 156.57L115.42 161.71M246.32 94.63L223.3 100.12L222.56 100.3L201.31 107.29L199.51 107.88L180.4 116.05L177.58 117.26L160.96 126.23L157.15 128.29M115.42 161.71L113.92 163.61L109.26 170.36L105.37 176L101.99 183.22L98.3 191.1L97.4 194.68L96.87 196.78M143.16 248.56L131.75 252.54L120.51 262.86L111.04 278.17L104.71 296.33L102.45 314.74L104.56 330.77L110.68 342.19L119.89 347.5L121.08 347.8L145.97 354.18L152.12 355.76" stroke="#F6851F" stroke-width="2" stroke-linecap="round" stroke-linejoin="round"/>
</svg>

