<svg width="711" height="590" viewBox="0 0 711 590" fill="none" xmlns="http://www.w3.org/2000/svg">
<g clip-path="url(#clip0_58_1683)">
<line x1="0.000244141" y1="40.6796" x2="1572.02" y2="40.6796" stroke="#DCDCDC" stroke-width="0.5" stroke-dasharray="2 2"/>
<line x1="0.000244141" y1="79.1093" x2="1572.02" y2="79.1093" stroke="#DCDCDC" stroke-width="0.5" stroke-dasharray="2 2"/>
<line x1="0.000244141" y1="117.54" x2="1572.02" y2="117.54" stroke="#DCDCDC" stroke-width="0.5" stroke-dasharray="2 2"/>
<line x1="0.000244141" y1="155.969" x2="1572.02" y2="155.969" stroke="#DCDCDC" stroke-width="0.5" stroke-dasharray="2 2"/>
<line x1="0.000244141" y1="194.399" x2="1572.02" y2="194.399" stroke="#DCDCDC" stroke-width="0.5" stroke-dasharray="2 2"/>
<line x1="0.000244141" y1="232.829" x2="1572.02" y2="232.829" stroke="#DCDCDC" stroke-width="0.5" stroke-dasharray="2 2"/>
<line x1="0.000244141" y1="271.258" x2="1572.02" y2="271.258" stroke="#DCDCDC" stroke-width="0.5" stroke-dasharray="2 2"/>
<line x1="0.000244141" y1="309.688" x2="1572.02" y2="309.688" stroke="#DCDCDC" stroke-width="0.5" stroke-dasharray="2 2"/>
<line x1="0.000244141" y1="348.118" x2="1572.02" y2="348.118" stroke="#DCDCDC" stroke-width="0.5" stroke-dasharray="2 2"/>
<line x1="0.000244141" y1="386.548" x2="1572.02" y2="386.548" stroke="#DCDCDC" stroke-width="0.5" stroke-dasharray="2 2"/>
<line x1="0.000244141" y1="424.977" x2="1572.02" y2="424.977" stroke="#DCDCDC" stroke-width="0.5" stroke-dasharray="2 2"/>
<line x1="0.000244141" y1="463.25" x2="1572.02" y2="463.25" stroke="#DCDCDC" stroke-width="0.5" stroke-dasharray="2 2"/>
<line x1="0.000244141" y1="501.523" x2="1572.02" y2="501.523" stroke="#DCDCDC" stroke-width="0.5" stroke-dasharray="2 2"/>
<line x1="0.000244141" y1="539.795" x2="1572.02" y2="539.795" stroke="#DCDCDC" stroke-width="0.5" stroke-dasharray="2 2"/>
<line x1="0.250275" y1="2.5" x2="0.250249" y2="582.5" stroke="#DCDCDC" stroke-width="0.5" stroke-dasharray="2 2"/>
<line x1="42.2502" y1="2.5" x2="42.2502" y2="582.5" stroke="#DCDCDC" stroke-width="0.5" stroke-dasharray="2 2"/>
<line x1="85.2502" y1="2.5" x2="85.2502" y2="582.5" stroke="#DCDCDC" stroke-width="0.5" stroke-dasharray="2 2"/>
<line x1="127.25" y1="2.5" x2="127.25" y2="582.5" stroke="#DCDCDC" stroke-width="0.5" stroke-dasharray="2 2"/>
<line x1="169.25" y1="2.5" x2="169.25" y2="582.5" stroke="#DCDCDC" stroke-width="0.5" stroke-dasharray="2 2"/>
<line x1="211.25" y1="2.5" x2="211.25" y2="582.5" stroke="#DCDCDC" stroke-width="0.5" stroke-dasharray="2 2"/>
<line x1="254.25" y1="2.5" x2="254.25" y2="582.5" stroke="#DCDCDC" stroke-width="0.5" stroke-dasharray="2 2"/>
<line x1="296.25" y1="2.5" x2="296.25" y2="582.5" stroke="#DCDCDC" stroke-width="0.5" stroke-dasharray="2 2"/>
<line x1="338.25" y1="2.5" x2="338.25" y2="582.5" stroke="#DCDCDC" stroke-width="0.5" stroke-dasharray="2 2"/>
<line x1="380.25" y1="2.5" x2="380.25" y2="582.5" stroke="#DCDCDC" stroke-width="0.5" stroke-dasharray="2 2"/>
<line x1="423.25" y1="2.5" x2="423.25" y2="582.5" stroke="#DCDCDC" stroke-width="0.5" stroke-dasharray="2 2"/>
<line x1="465.25" y1="2.5" x2="465.25" y2="582.5" stroke="#DCDCDC" stroke-width="0.5" stroke-dasharray="2 2"/>
<line x1="507.25" y1="2.5" x2="507.25" y2="582.5" stroke="#DCDCDC" stroke-width="0.5" stroke-dasharray="2 2"/>
<line x1="550.25" y1="2.5" x2="550.25" y2="582.5" stroke="#DCDCDC" stroke-width="0.5" stroke-dasharray="2 2"/>
<line x1="592.25" y1="2.5" x2="592.25" y2="582.5" stroke="#DCDCDC" stroke-width="0.5" stroke-dasharray="2 2"/>
<line x1="634.25" y1="2.5" x2="634.25" y2="582.5" stroke="#DCDCDC" stroke-width="0.5" stroke-dasharray="2 2"/>
<line x1="676.25" y1="2.5" x2="676.25" y2="582.5" stroke="#DCDCDC" stroke-width="0.5" stroke-dasharray="2 2"/>
<rect x="-15.9998" y="2.5" width="727" height="580" fill="url(#paint0_radial_58_1683)"/>
</g>
<path d="M358.5 -4.61155e-06L358.5 194C393.667 194.833 464 219.2 464 302" stroke="url(#paint1_linear_58_1683)" stroke-width="24"/>
<path d="M359 4.61155e-06L359 194C323.833 194.833 253.5 219.2 253.5 302" stroke="url(#paint2_linear_58_1683)" stroke-width="24"/>
<path d="M253.5 301.5L253.5 470.5L253.5 589.5" stroke="url(#paint3_linear_58_1683)" stroke-width="24"/>
<path d="M464 301.5L464 470.5L464 589.5" stroke="url(#paint4_linear_58_1683)" stroke-width="24"/>
<circle cx="370" cy="105.5" r="3" transform="rotate(90 370 105.5)" fill="#FCA061"/>
<circle cx="352" cy="95.5" r="3" transform="rotate(90 352 95.5)" fill="#FCA061"/>
<circle cx="357" cy="161.5" r="3" transform="rotate(90 357 161.5)" fill="#FCA061"/>
<circle cx="346" cy="131.5" r="3" transform="rotate(90 346 131.5)" fill="#FCA061"/>
<circle cx="247" cy="439.5" r="3" transform="rotate(90 247 439.5)" fill="#58A6FF"/>
<circle cx="243" cy="379.5" r="3" transform="rotate(90 243 379.5)" fill="#58A6FF"/>
<circle cx="264" cy="487.5" r="3" transform="rotate(90 264 487.5)" fill="#58A6FF"/>
<circle cx="243" cy="402.5" r="3" transform="rotate(90 243 402.5)" fill="#58A6FF"/>
<circle cx="265" cy="396.5" r="3" transform="rotate(90 265 396.5)" fill="#58A6FF"/>
<circle cx="255" cy="418.5" r="3" transform="rotate(90 255 418.5)" fill="#58A6FF"/>
<circle cx="257" cy="451.5" r="3" transform="rotate(90 257 451.5)" fill="#58A6FF"/>
<circle cx="265" cy="465.5" r="3" transform="rotate(90 265 465.5)" fill="#58A6FF"/>
<circle cx="243" cy="479.5" r="3" transform="rotate(90 243 479.5)" fill="#58A6FF"/>
<circle cx="254" cy="501.5" r="3" transform="rotate(90 254 501.5)" fill="#58A6FF"/>
<circle cx="265" cy="523.5" r="3" transform="rotate(90 265 523.5)" fill="#58A6FF"/>
<circle cx="243" cy="517.5" r="3" transform="rotate(90 243 517.5)" fill="#58A6FF"/>
<circle cx="265" cy="433.5" r="3" transform="rotate(90 265 433.5)" fill="#58A6FF"/>
<circle cx="360" cy="119.5" r="3" transform="rotate(90 360 119.5)" fill="#FCA061"/>
<circle cx="364" cy="141.5" r="3" transform="rotate(90 364 141.5)" fill="#FCA061"/>
<circle cx="370" cy="155.5" r="3" transform="rotate(90 370 155.5)" fill="#FCA061"/>
<circle cx="360" cy="177.5" r="3" transform="rotate(90 360 177.5)" fill="#FCA061"/>
<circle cx="346" cy="189.5" r="3" transform="rotate(90 346 189.5)" fill="#FCA061"/>
<circle cx="475" cy="359.5" r="3" transform="rotate(90 475 359.5)" fill="#FCA061"/>
<circle cx="471" cy="381.5" r="3" transform="rotate(90 471 381.5)" fill="#FCA061"/>
<circle cx="457" cy="370.5" r="3" transform="rotate(90 457 370.5)" fill="#FCA061"/>
<circle cx="453" cy="400.5" r="3" transform="rotate(90 453 400.5)" fill="#FCA061"/>
<circle cx="463" cy="410.5" r="3" transform="rotate(90 463 410.5)" fill="#FCA061"/>
<circle cx="463" cy="451.5" r="3" transform="rotate(90 463 451.5)" fill="#FCA061"/>
<circle cx="476" cy="465.5" r="3" transform="rotate(90 476 465.5)" fill="#FCA061"/>
<circle cx="454" cy="479.5" r="3" transform="rotate(90 454 479.5)" fill="#FCA061"/>
<circle cx="468" cy="493.5" r="3" transform="rotate(90 468 493.5)" fill="#FCA061"/>
<circle cx="452" cy="523.5" r="3" transform="rotate(90 452 523.5)" fill="#FCA061"/>
<circle cx="466" cy="541.5" r="3" transform="rotate(90 466 541.5)" fill="#FCA061"/>
<circle cx="476" cy="511.5" r="3" transform="rotate(90 476 511.5)" fill="#FCA061"/>
<circle cx="473" cy="424.5" r="3" transform="rotate(90 473 424.5)" fill="#FCA061"/>
<circle cx="476" cy="402.5" r="3" transform="rotate(90 476 402.5)" fill="#FCA061"/>
<circle cx="453" cy="433.5" r="3" transform="rotate(90 453 433.5)" fill="#FCA061"/>
<defs>
<radialGradient id="paint0_radial_58_1683" cx="0" cy="0" r="1" gradientUnits="userSpaceOnUse" gradientTransform="translate(347.5 292.5) scale(363.5 290)">
<stop offset="0.75" stop-color="white" stop-opacity="0.2"/>
<stop offset="1" stop-color="white"/>
</radialGradient>
<linearGradient id="paint1_linear_58_1683" x1="358.5" y1="4.49999" x2="358.5" y2="194.5" gradientUnits="userSpaceOnUse">
<stop offset="0.4" stop-color="white"/>
<stop offset="1" stop-color="#FCA061"/>
</linearGradient>
<linearGradient id="paint2_linear_58_1683" x1="359" y1="4.5" x2="359" y2="194.5" gradientUnits="userSpaceOnUse">
<stop offset="0.2" stop-color="white"/>
<stop offset="1" stop-color="#FCA061"/>
</linearGradient>
<linearGradient id="paint3_linear_58_1683" x1="252.5" y1="304.018" x2="252.497" y2="581.5" gradientUnits="userSpaceOnUse">
<stop stop-color="#FCA061"/>
<stop offset="0.125864" stop-color="#FCA061"/>
<stop offset="0.3" stop-color="#58A6FF"/>
<stop offset="0.801468" stop-color="#58A6FF" stop-opacity="0"/>
</linearGradient>
<linearGradient id="paint4_linear_58_1683" x1="463" y1="304.018" x2="462.997" y2="589.5" gradientUnits="userSpaceOnUse">
<stop stop-color="#FCA061"/>
<stop offset="0.125864" stop-color="#FCA061"/>
<stop offset="0.25" stop-color="#FCA061"/>
<stop offset="0.8" stop-color="#FCA061" stop-opacity="0"/>
</linearGradient>
<clipPath id="clip0_58_1683">
<rect width="711" height="572" fill="white" transform="translate(0.000244141 2.5)"/>
</clipPath>
</defs>
</svg>
