<svg width="1205" height="619" viewBox="0 0 1205 619" fill="none" xmlns="http://www.w3.org/2000/svg">
<g clip-path="url(#clip0_576_2717)">
<line y1="13.0396" x2="1572.02" y2="13.0396" stroke="#DCDCDC" stroke-width="0.5" stroke-dasharray="2 2"/>
<line y1="51.4692" x2="1572.02" y2="51.4692" stroke="#DCDCDC" stroke-width="0.5" stroke-dasharray="2 2"/>
<line y1="89.8989" x2="1572.02" y2="89.8989" stroke="#DCDCDC" stroke-width="0.5" stroke-dasharray="2 2"/>
<line y1="128.329" x2="1572.02" y2="128.329" stroke="#DCDCDC" stroke-width="0.5" stroke-dasharray="2 2"/>
<line y1="166.758" x2="1572.02" y2="166.758" stroke="#DCDCDC" stroke-width="0.5" stroke-dasharray="2 2"/>
<line y1="205.188" x2="1572.02" y2="205.188" stroke="#DCDCDC" stroke-width="0.5" stroke-dasharray="2 2"/>
<line y1="243.618" x2="1572.02" y2="243.618" stroke="#DCDCDC" stroke-width="0.5" stroke-dasharray="2 2"/>
<line y1="282.048" x2="1572.02" y2="282.048" stroke="#DCDCDC" stroke-width="0.5" stroke-dasharray="2 2"/>
<line y1="320.477" x2="1572.02" y2="320.477" stroke="#DCDCDC" stroke-width="0.5" stroke-dasharray="2 2"/>
<line y1="358.75" x2="1572.02" y2="358.75" stroke="#DCDCDC" stroke-width="0.5" stroke-dasharray="2 2"/>
<line y1="397.023" x2="1572.02" y2="397.023" stroke="#DCDCDC" stroke-width="0.5" stroke-dasharray="2 2"/>
<line y1="435.295" x2="1572.02" y2="435.295" stroke="#DCDCDC" stroke-width="0.5" stroke-dasharray="2 2"/>
<line y1="473.568" x2="1572.02" y2="473.568" stroke="#DCDCDC" stroke-width="0.5" stroke-dasharray="2 2"/>
<line y1="511.841" x2="1572.02" y2="511.841" stroke="#DCDCDC" stroke-width="0.5" stroke-dasharray="2 2"/>
<line y1="550.114" x2="1572.02" y2="550.114" stroke="#DCDCDC" stroke-width="0.5" stroke-dasharray="2 2"/>
<line y1="588.386" x2="1572.02" y2="588.386" stroke="#DCDCDC" stroke-width="0.5" stroke-dasharray="2 2"/>
<line x1="0.25" y1="-102" x2="0.249955" y2="922" stroke="#DCDCDC" stroke-width="0.5" stroke-dasharray="2 2"/>
<line x1="42.25" y1="-102" x2="42.25" y2="922" stroke="#DCDCDC" stroke-width="0.5" stroke-dasharray="2 2"/>
<line x1="85.25" y1="-102" x2="85.25" y2="922" stroke="#DCDCDC" stroke-width="0.5" stroke-dasharray="2 2"/>
<line x1="127.25" y1="-102" x2="127.25" y2="922" stroke="#DCDCDC" stroke-width="0.5" stroke-dasharray="2 2"/>
<line x1="169.25" y1="-102" x2="169.25" y2="922" stroke="#DCDCDC" stroke-width="0.5" stroke-dasharray="2 2"/>
<line x1="211.25" y1="-102" x2="211.25" y2="922" stroke="#DCDCDC" stroke-width="0.5" stroke-dasharray="2 2"/>
<line x1="254.25" y1="-102" x2="254.25" y2="922" stroke="#DCDCDC" stroke-width="0.5" stroke-dasharray="2 2"/>
<line x1="296.25" y1="-102" x2="296.25" y2="922" stroke="#DCDCDC" stroke-width="0.5" stroke-dasharray="2 2"/>
<line x1="338.25" y1="-102" x2="338.25" y2="922" stroke="#DCDCDC" stroke-width="0.5" stroke-dasharray="2 2"/>
<line x1="380.25" y1="-102" x2="380.25" y2="922" stroke="#DCDCDC" stroke-width="0.5" stroke-dasharray="2 2"/>
<line x1="423.25" y1="-102" x2="423.25" y2="922" stroke="#DCDCDC" stroke-width="0.5" stroke-dasharray="2 2"/>
<line x1="465.25" y1="-102" x2="465.25" y2="922" stroke="#DCDCDC" stroke-width="0.5" stroke-dasharray="2 2"/>
<line x1="507.25" y1="-102" x2="507.25" y2="922" stroke="#DCDCDC" stroke-width="0.5" stroke-dasharray="2 2"/>
<line x1="550.25" y1="-102" x2="550.25" y2="922" stroke="#DCDCDC" stroke-width="0.5" stroke-dasharray="2 2"/>
<line x1="592.25" y1="-102" x2="592.25" y2="922" stroke="#DCDCDC" stroke-width="0.5" stroke-dasharray="2 2"/>
<line x1="634.25" y1="-102" x2="634.25" y2="922" stroke="#DCDCDC" stroke-width="0.5" stroke-dasharray="2 2"/>
<line x1="676.25" y1="-102" x2="676.25" y2="922" stroke="#DCDCDC" stroke-width="0.5" stroke-dasharray="2 2"/>
<line x1="719.25" y1="-102" x2="719.25" y2="922" stroke="#DCDCDC" stroke-width="0.5" stroke-dasharray="2 2"/>
<line x1="761.25" y1="-102" x2="761.25" y2="922" stroke="#DCDCDC" stroke-width="0.5" stroke-dasharray="2 2"/>
<line x1="803.25" y1="-102" x2="803.25" y2="922" stroke="#DCDCDC" stroke-width="0.5" stroke-dasharray="2 2"/>
<line x1="845.25" y1="-102" x2="845.25" y2="922" stroke="#DCDCDC" stroke-width="0.5" stroke-dasharray="2 2"/>
<line x1="888.25" y1="-102" x2="888.25" y2="922" stroke="#DCDCDC" stroke-width="0.5" stroke-dasharray="2 2"/>
<line x1="930.25" y1="-102" x2="930.25" y2="922" stroke="#DCDCDC" stroke-width="0.5" stroke-dasharray="2 2"/>
<line x1="972.25" y1="-102" x2="972.25" y2="922" stroke="#DCDCDC" stroke-width="0.5" stroke-dasharray="2 2"/>
<line x1="1015.25" y1="-102" x2="1015.25" y2="922" stroke="#DCDCDC" stroke-width="0.5" stroke-dasharray="2 2"/>
<line x1="1057.25" y1="-102" x2="1057.25" y2="922" stroke="#DCDCDC" stroke-width="0.5" stroke-dasharray="2 2"/>
<line x1="1099.25" y1="-102" x2="1099.25" y2="922" stroke="#DCDCDC" stroke-width="0.5" stroke-dasharray="2 2"/>
<line x1="1141.25" y1="-102" x2="1141.25" y2="922" stroke="#DCDCDC" stroke-width="0.5" stroke-dasharray="2 2"/>
<line x1="1184.25" y1="-102" x2="1184.25" y2="922" stroke="#DCDCDC" stroke-width="0.5" stroke-dasharray="2 2"/>
<rect y="-102" width="1205" height="897" fill="url(#paint0_radial_576_2717)"/>
</g>
<defs>
<radialGradient id="paint0_radial_576_2717" cx="0" cy="0" r="1" gradientUnits="userSpaceOnUse" gradientTransform="translate(602.5 346.5) rotate(-0.406316) scale(602.501 355.794)">
<stop offset="0.595" stop-color="white" stop-opacity="0.2"/>
<stop offset="1" stop-color="white"/>
</radialGradient>
<clipPath id="clip0_576_2717">
<rect width="1205" height="1024" fill="white" transform="translate(0 -102)"/>
</clipPath>
</defs>
</svg>

