<svg width="799" height="200" viewBox="0 0 799 200" fill="none" xmlns="http://www.w3.org/2000/svg">
<g clip-path="url(#clip0_1113_5125)">
<path fill-rule="evenodd" clip-rule="evenodd" d="M115.295 1.2998L153.528 46.6258L162.446 130.383L94.9624 201.3L16.4463 130.15L55.9808 29.5573L115.295 1.2998ZM59.4094 37.2798L90.9446 70.5936L58.6944 117.37L24.8947 125.1L59.4094 37.2798ZM26.3158 130.963L86.2524 185.277L58.7638 123.543L26.3158 130.963ZM65.3463 123.535L95.7255 191.761L152.845 131.736L65.3463 123.535ZM155.477 121.723L148.068 52.1487L100.376 71.3063L155.477 121.723ZM95.5829 66.7325L145.647 46.6222L113.694 8.74155L63.3789 32.7121L95.5829 66.7325ZM95.323 74.8483L150.648 125.47L65.8982 117.527L95.323 74.8483Z" fill="#fff"/>
<path d="M402.024 158.48C385.084 158.48 370.784 152.98 359.344 141.76C347.904 130.54 342.184 116.46 342.184 99.74C342.184 83.02 347.904 69.16 359.344 57.94C370.784 46.72 385.084 41 402.024 41C416.324 41 428.644 45.18 439.424 53.54C450.204 61.68 457.024 72.46 459.884 85.44H439.864C433.924 69.82 419.624 59.26 402.024 59.26C390.364 59.26 380.904 63.22 373.204 70.92C365.504 78.62 361.764 88.08 361.764 99.74C361.764 111.4 365.504 121.08 373.204 128.78C380.904 136.48 390.364 140.22 402.024 140.22C419.624 140.22 433.924 129.66 439.864 114.04H459.884C457.024 127.02 450.204 137.8 439.424 146.16C428.644 154.3 416.324 158.48 402.024 158.48Z" fill="#fff"/>
<path d="M646.73 52.66C639.03 44.96 628.91 41 616.37 41C597.67 41 584.03 48.7 575.89 64.32C569.51 49.58 555.43 41 537.61 41C521.33 41 509.01 47.16 500.87 59.7V43.64H481.95V155.84H500.87V89.18C500.87 71.36 513.19 59.26 531.67 59.26C549.27 59.26 560.71 70.92 560.71 88.74V155.84H579.63V89.18C579.63 71.36 591.95 59.26 610.43 59.26C628.03 59.26 639.47 70.92 639.47 88.74V155.84H658.39V83.46C658.39 70.48 654.43 60.36 646.73 52.66Z" fill="#fff"/>
<path fill-rule="evenodd" clip-rule="evenodd" d="M798.236 107V106.998C798.438 104.391 798.625 101.972 798.625 99.74C798.625 83.02 792.905 69.16 781.465 57.94C770.245 46.72 755.945 41 739.005 41C722.065 41 707.765 46.72 696.325 57.94C685.105 69.16 679.385 83.02 679.385 99.74C679.385 116.46 685.105 130.54 696.325 141.76C707.765 152.98 722.065 158.48 739.005 158.48C766.285 158.48 788.285 143.08 796.425 119.98H775.525C769.585 132.52 755.725 141.1 739.005 141.1C728.885 141.1 720.085 138.02 712.825 131.86C705.565 125.7 701.165 117.56 699.625 107.66H798.185L798.236 107ZM778.385 90.72H699.845C703.585 71.36 718.985 58.38 739.005 58.38C759.025 58.38 774.865 71.58 778.385 90.72Z" fill="#fff"/>
<path fill-rule="evenodd" clip-rule="evenodd" d="M325.84 43.6396H240.48V61.8997H306.92V83.8997H273.48C261.82 83.8997 252.14 87.4197 244.44 94.6797C236.74 101.72 233 110.52 233 121.08C233 131.86 236.74 140.66 244.44 147.92C252.14 154.96 261.82 158.48 273.48 158.48C288.66 158.48 301.86 151.88 308.9 141.32V155.84H325.84V43.6396ZM306.92 119.1C306.92 132.3 294.38 141.32 275.9 141.32C262.48 141.32 252.58 132.74 252.58 121.08C252.58 109.64 262.48 101.06 275.9 101.06H306.92V119.1Z" fill="#fff"/>
</g>
<defs>
<clipPath id="clip0_1113_5125">
<rect width="799" height="200" fill="white"/>
</clipPath>
</defs>
</svg>

