<svg width="621" height="200" viewBox="0 0 621 200" fill="none" xmlns="http://www.w3.org/2000/svg">
<path d="M200 99.9999L170.54 49.3199H115.74L88.33 2.16992H29.46L0 52.8499L27.4 99.9999L0 147.15L29.46 197.83H88.33L115.74 150.68H170.54L200 99.9999ZM33.53 9.23992H84.26L109.61 52.8499L84.26 96.4599H33.53L8.18 52.8499L33.53 9.23992ZM84.26 190.76H33.53L8.18 147.15L33.53 103.54H84.26L109.61 147.17L84.26 190.76ZM115.74 143.61L90.39 99.9999L115.74 56.3899H166.47L191.82 99.9999L166.47 143.61H115.74Z" fill="#fff"/>
<path d="M247.41 169.63H265.26C268.2 169.63 269.67 168.16 269.67 165.22V101.59C269.67 90.95 274.5 85.63 284.16 85.63H291.72C296.2 85.63 299.35 86.61 301.17 88.57C303.13 90.39 304.11 93.54 304.11 98.02V165.22C304.11 168.16 305.58 169.63 308.52 169.63H326.16C329.24 169.63 330.78 168.16 330.78 165.22V96.76C330.78 73.94 319.79 62.53 297.81 62.53H291.09C280.45 62.53 273.59 66.31 270.51 73.87H269.67V26.41C269.67 23.47 268.2 22 265.26 22H247.41C244.47 22 243 23.47 243 26.41V165.22C243 168.16 244.47 169.63 247.41 169.63Z" fill="#fff"/>
<path fill-rule="evenodd" clip-rule="evenodd" d="M425.581 169.63H379.171C368.111 169.63 359.571 166.69 353.551 160.81C347.531 154.93 344.521 146.46 344.521 135.4V96.7598C344.521 85.6998 347.531 77.2298 353.551 71.3498C359.571 65.4698 368.111 62.5298 379.171 62.5298H395.761C406.821 62.5298 415.361 65.4698 421.381 71.3498C427.401 77.2298 430.411 85.6998 430.411 96.7598V123.43C430.411 126.37 428.941 127.84 426.001 127.84H373.291C371.611 127.84 370.771 128.61 370.771 130.15V134.77C370.771 139.11 371.681 142.26 373.501 144.22C375.462 146.04 378.681 146.95 383.161 146.95H425.581C428.521 146.95 429.991 148.49 429.991 151.57V165.43C429.991 166.97 429.641 168.09 428.941 168.79C428.382 169.35 427.261 169.63 425.581 169.63ZM373.291 109.99H401.851C403.391 109.99 404.161 109.22 404.161 107.68V97.5998C404.161 93.1198 403.251 89.9698 401.431 88.1498C399.611 86.3298 396.461 85.4198 391.981 85.4198H383.161C378.681 85.4198 375.531 86.3298 373.711 88.1498C371.891 89.9698 370.981 93.1198 370.981 97.5998V107.68C370.981 109.22 371.751 109.99 373.291 109.99Z" fill="#fff"/>
<path d="M440.101 169.63H461.311C464.531 169.63 466.631 168.16 467.611 165.22L480.841 133.09H481.681L494.911 165.22C496.171 168.16 498.271 169.63 501.211 169.63H522.841C524.241 169.63 525.151 169.21 525.571 168.37C526.131 167.53 526.061 166.48 525.361 165.22L498.271 115.03L523.471 66.9398C525.291 63.9998 524.381 62.5298 520.741 62.5298H499.741C496.381 62.5298 494.211 63.9998 493.231 66.9398L481.681 98.8598H480.841L467.611 66.9398C466.631 63.9998 464.461 62.5298 461.101 62.5298H439.681C436.601 62.5298 435.761 63.9998 437.161 66.9398L463.621 115.03L437.161 165.22C435.481 168.16 436.461 169.63 440.101 169.63Z" fill="#fff"/>
<path fill-rule="evenodd" clip-rule="evenodd" d="M567.343 169.63H572.383C576.723 169.63 580.853 168.72 584.773 166.9C588.693 164.94 591.423 162.07 592.963 158.29H593.803V165.22C593.803 168.16 595.273 169.63 598.213 169.63H615.853C618.933 169.63 620.473 168.16 620.473 165.22V66.9398C620.473 63.9998 618.933 62.5298 615.853 62.5298H567.343C556.283 62.5298 547.743 65.4698 541.723 71.3498C535.703 77.2298 532.693 85.6998 532.693 96.7598V135.4C532.693 146.46 535.703 154.93 541.723 160.81C547.743 166.69 556.283 169.63 567.343 169.63ZM593.803 87.9398V130.57C593.803 141.21 588.973 146.53 579.313 146.53H571.543C567.063 146.53 563.913 145.62 562.093 143.8C560.273 141.84 559.363 138.62 559.363 134.14V98.0198C559.363 93.5398 560.273 90.3898 562.093 88.5698C563.913 86.6098 567.063 85.6298 571.543 85.6298H591.283C592.963 85.6298 593.803 86.3998 593.803 87.9398Z" fill="#fff"/>
</svg>

