<svg width="740" height="200" viewBox="0 0 740 200" fill="none" xmlns="http://www.w3.org/2000/svg">
<g clip-path="url(#clip0_1113_4687)">
<path fill-rule="evenodd" clip-rule="evenodd" d="M65.3409 78.6901C62.4204 72.6221 61.1184 65.9022 61.5612 59.1826C62.004 52.4629 64.1765 45.9719 67.8679 40.3396C71.5593 34.7073 76.6442 30.1251 82.629 27.0377C88.6137 23.9503 95.2951 22.4626 102.024 22.7191C108.754 22.9756 115.302 24.9676 121.035 28.5016C126.767 32.0356 131.488 36.9916 134.74 42.8885C137.992 48.7855 139.665 55.423 139.595 62.1569C139.525 68.8907 137.715 75.4921 134.341 81.3201L102.821 136L112.271 152.37L148.551 89.5301C155.712 76.8108 157.566 61.7803 153.712 47.7018C149.858 33.6233 140.607 21.6332 127.966 14.3345C115.325 7.03585 100.316 5.01775 86.1963 8.71837C72.0767 12.419 59.9866 21.5396 52.5509 34.1001C48.6019 40.8482 46.1429 48.3634 45.3391 56.1406C44.5353 63.9178 45.4054 71.777 47.8909 79.1901C50.4186 78.8737 52.9634 78.7134 55.5109 78.7101L65.3409 78.6901ZM192.491 110.49C188.573 103.613 183.212 97.6655 176.777 93.058C170.341 88.4505 162.984 85.2921 155.211 83.8C154.224 86.1582 153.092 88.4526 151.821 90.67L146.881 99.22C153.623 99.6342 160.142 101.79 165.802 105.476C171.462 109.162 176.07 114.254 179.175 120.252C182.28 126.251 183.776 132.953 183.517 139.703C183.258 146.452 181.254 153.02 177.699 158.763C174.144 164.507 169.16 169.23 163.235 172.473C157.309 175.715 150.644 177.365 143.89 177.262C137.136 177.159 130.524 175.306 124.7 171.885C118.876 168.463 114.039 163.589 110.661 157.74L79.1908 103.24H60.3008L96.4808 165.92C97.7248 168.059 99.1043 170.117 100.611 172.08L100.911 172.47C106.064 179.103 112.673 184.461 120.229 188.13C127.784 191.8 136.082 193.681 144.481 193.63C154.21 193.629 163.767 191.067 172.192 186.202C180.617 181.337 187.614 174.34 192.478 165.915C197.343 157.489 199.904 147.932 199.904 138.203C199.905 128.474 197.344 118.916 192.481 110.49H192.491ZM73.5571 172.852C79.4675 169.772 84.4914 165.231 88.1504 159.66L92.9404 168C94.2662 170.286 95.7428 172.481 97.3604 174.57C92.1834 180.591 85.7591 185.414 78.5327 188.705C71.3064 191.996 63.4508 193.677 55.5104 193.63C48.1693 193.729 40.8817 192.368 34.0707 189.627C27.2598 186.886 21.0613 182.819 15.8351 177.662C10.6089 172.506 6.45917 166.363 3.62681 159.589C0.794458 152.816 -0.664062 145.547 -0.664062 138.205C-0.664062 130.863 0.794458 123.595 3.62681 116.821C6.45917 110.048 10.6089 103.904 15.8351 98.7479C21.0613 93.5914 27.2598 89.5245 34.0707 86.7834C40.8817 84.0423 48.1693 82.6815 55.5104 82.7801H128L118.58 99.1402H55.5104C48.6543 99.1434 41.9197 100.951 35.9832 104.381C30.0466 107.811 25.1173 112.742 21.6901 118.681C18.263 124.619 16.4589 131.354 16.4589 138.21C16.459 145.067 18.2632 151.802 21.6904 157.74C25.0218 163.513 29.7751 168.336 35.4979 171.752C41.2207 175.168 47.7225 177.062 54.3844 177.255C61.0463 177.447 67.6467 175.931 73.5571 172.852Z" fill="#fff"/>
<path d="M336.163 162.02L333.283 148.34L331.843 147.8C330.763 148.52 329.323 149.06 327.703 149.06C324.823 149.06 322.303 147.44 319.243 144.02L293.323 113.6L328.963 75.26L328.423 74H307.363L270.103 115.04V42.32L268.663 41.24L250.483 43.94V164H270.103V134.12L278.923 124.58L304.303 155.18C309.703 161.84 316.543 166.16 325.183 166.16C329.683 166.16 333.103 165.08 335.443 163.46L336.163 162.02Z" fill="#fff"/>
<path fill-rule="evenodd" clip-rule="evenodd" d="M592.442 71.8399C619.802 71.8399 638.342 92.7199 638.342 119C638.342 145.28 619.802 166.16 592.442 166.16C579.662 166.16 568.862 160.94 561.122 153.02V164H543.482V44.1199L561.842 41.4199L563.102 42.3199V83.1799C570.662 76.1599 580.742 71.8399 592.442 71.8399ZM590.102 149.06C607.022 149.06 618.182 135.74 618.182 119C618.182 102.44 607.022 88.9399 590.102 88.9399C574.262 88.9399 561.662 99.3799 561.662 119C561.662 138.62 574.262 149.06 590.102 149.06Z" fill="#fff"/>
<path fill-rule="evenodd" clip-rule="evenodd" d="M736.421 148.52L739.301 161.84L738.581 163.1C736.061 164.9 732.281 166.16 727.781 166.16C719.681 166.16 713.741 161.84 711.401 154.46C703.661 161.84 692.501 166.16 680.621 166.16C662.081 166.16 644.981 155.9 644.981 136.46C644.981 116.48 662.981 107.3 685.121 107.3C694.841 107.3 702.401 109.1 708.881 111.44V106.4C708.881 93.4401 697.181 87.1401 684.761 87.1401C674.501 87.1401 666.581 91.4601 660.281 97.5801H658.841L648.941 88.2201V86.7801C658.661 77.4201 671.081 71.8401 686.561 71.8401C706.001 71.8401 728.141 80.4801 728.141 106.4V141.14C728.141 146 729.041 149.06 732.281 149.06C733.541 149.06 734.441 148.52 735.161 147.98L736.421 148.52ZM708.881 131.42V124.76C704.201 122.96 696.461 120.62 687.641 120.62C673.421 120.62 664.601 126.74 664.601 136.46C664.601 146.72 674.321 151.76 684.581 151.76C697.001 151.76 708.881 144.02 708.881 131.42Z" fill="#fff"/>
<path d="M525.775 109.82C525.775 87.3201 511.195 71.8401 488.335 71.8401C476.275 71.8401 466.015 76.1601 458.995 83.1801C456.655 75.9801 451.075 71.8401 442.795 71.8401C438.115 71.8401 434.155 73.1001 431.635 74.9001L430.915 76.1601L433.795 89.4801L435.055 90.0201C435.775 89.4801 436.675 88.9401 437.935 88.9401C441.355 88.9401 442.075 92.0001 442.075 96.8601V164H461.875V111.44C461.875 97.7601 471.055 88.7601 484.555 88.7601C498.055 88.7601 506.155 97.7601 506.155 111.44V164H525.775V109.82Z" fill="#fff"/>
<path fill-rule="evenodd" clip-rule="evenodd" d="M426.02 148.52L428.9 161.84L428.18 163.1C425.66 164.9 421.88 166.16 417.38 166.16C409.28 166.16 403.34 161.84 401 154.46C393.26 161.84 382.1 166.16 370.22 166.16C351.68 166.16 334.58 155.9 334.58 136.46C334.58 116.48 352.58 107.3 374.72 107.3C384.44 107.3 392 109.1 398.48 111.44V106.4C398.48 93.4401 386.78 87.1401 374.36 87.1401C364.1 87.1401 356.18 91.4601 349.88 97.5801H348.44L338.54 88.2201V86.7801C348.26 77.4201 360.68 71.8401 376.16 71.8401C395.6 71.8401 417.74 80.4801 417.74 106.4V141.14C417.74 146 418.64 149.06 421.88 149.06C423.14 149.06 424.04 148.52 424.76 147.98L426.02 148.52ZM398.48 131.42V124.76C393.8 122.96 386.06 120.62 377.24 120.62C363.02 120.62 354.2 126.74 354.2 136.46C354.2 146.72 363.92 151.76 374.18 151.76C386.6 151.76 398.48 144.02 398.48 131.42Z" fill="#fff"/>
</g>
<defs>
<clipPath id="clip0_1113_4687">
<rect width="740" height="200" fill="white"/>
</clipPath>
</defs>
</svg>

