<svg width="635" height="200" viewBox="0 0 635 200" fill="none" xmlns="http://www.w3.org/2000/svg">
<path d="M93.4 80.28L117.24 83.21L134.21 111.25L63.46 200L88.6 118.68L64.76 115.75L47.79 87.72L117.94 0L93.4 80.28Z" fill="black"/>
<path d="M22.5802 100C22.6008 82.6587 29.1997 65.971 41.0448 53.3055C52.8899 40.64 69.0991 32.94 86.4002 31.76L103.14 10.82C80.8864 7.77935 58.2999 13.1696 39.8175 25.9319C21.335 38.6942 8.2925 57.9061 3.25192 79.7937C-1.78867 101.681 1.53699 124.663 12.5756 144.224C23.6143 163.784 41.568 178.511 62.9102 185.51L69.2902 164.87C55.696 160.304 43.8768 151.588 35.4971 139.951C27.1175 128.313 22.5997 114.34 22.5802 100Z" fill="#fff"/>
<path d="M118.59 14.3199L112.27 34.9999C127.428 39.9522 140.38 50.0449 148.885 63.5334C157.391 77.0219 160.917 93.0583 158.853 108.871C156.789 124.683 149.265 139.277 137.582 150.131C125.899 160.984 110.792 167.414 94.8703 168.31L78.2803 189.11C100.624 192.338 123.364 187.052 141.992 174.299C160.62 161.546 173.775 142.258 178.849 120.26C183.922 98.2619 180.542 75.1608 169.381 55.5377C158.219 35.9146 140.091 21.2028 118.59 14.3199Z" fill="#fff"/>
<path d="M224.174 150V46.219H233.646V141.503H284.771V150H224.174Z" fill="#fff"/>
<path d="M400.37 150V105.353C400.37 98.1095 402.437 92.6535 406.57 88.9851C410.702 85.3168 415.764 83.4826 421.754 83.4826C427.79 83.4826 432.55 85.2704 436.032 88.8458C439.561 92.4213 441.326 97.5058 441.326 104.1V150H450.311V103.542C450.311 97.413 449.103 92.2355 446.689 88.01C444.321 83.7845 441.094 80.5805 437.007 78.3981C432.921 76.2156 428.324 75.1244 423.216 75.1244C418.387 75.1244 413.999 76.1692 410.052 78.2588C406.105 80.3483 402.878 83.5523 400.37 87.8707V46.219H391.455V150H400.37Z" fill="#fff"/>
<path d="M492.628 76.4479V84.3185H477.305V133.493C477.305 136.604 477.978 138.833 479.324 140.179C480.718 141.479 483.016 142.129 486.22 142.129H492.628V150H485.523C474.054 150 468.32 144.776 468.32 134.328V84.3185H455.782V76.4479H468.32V56.3882H477.305V76.4479H492.628Z" fill="#fff"/>
<path fill-rule="evenodd" clip-rule="evenodd" d="M345.794 179.95C337.389 179.95 330.494 178 325.107 174.099C319.721 170.245 316.494 164.813 315.426 157.801H324.62C325.734 162.305 328.102 165.788 331.724 168.249C335.392 170.71 340.082 171.94 345.794 171.94C353.084 171.94 358.749 169.99 362.789 166.089C366.829 162.235 368.848 156.872 368.848 150V136.07H368.779C366.457 140.852 363.114 144.59 358.749 147.284C354.384 149.977 349.416 151.323 343.843 151.323C337.528 151.323 331.956 149.745 327.127 146.587C322.344 143.383 318.583 138.925 315.844 133.214C313.15 127.456 311.804 120.793 311.804 113.224C311.804 105.655 313.15 99.0149 315.844 93.3035C318.583 87.592 322.368 83.1343 327.197 79.9304C332.026 76.7264 337.575 75.1244 343.843 75.1244C349.369 75.1244 354.384 76.4942 358.888 79.2338C363.392 81.927 366.712 85.7579 368.848 90.7264H368.918V76.4478H377.694V150C377.694 156.826 376.278 162.444 373.445 166.856C370.659 171.313 366.852 174.61 362.023 176.746C357.24 178.882 351.83 179.95 345.794 179.95ZM345.028 143.104C352.411 143.104 358.308 140.411 362.719 135.025C367.177 129.592 369.406 122.325 369.406 113.224C369.406 104.123 367.177 96.8557 362.719 91.4229C358.308 85.99 352.411 83.2736 345.028 83.2736C338.062 83.2736 332.281 85.874 327.684 91.0746C323.134 96.2753 320.858 103.658 320.858 113.224C320.858 122.789 323.134 130.172 327.684 135.373C332.281 140.527 338.062 143.104 345.028 143.104Z" fill="#fff"/>
<path d="M293.307 150V76.4478H302.222V150H293.307Z" fill="#fff"/>
<path d="M293.168 58.617C294.468 59.8707 296 60.4976 297.765 60.4976C299.529 60.4976 301.038 59.8707 302.292 58.617C303.592 57.3632 304.242 55.8309 304.242 54.02C304.242 52.209 303.592 50.6767 302.292 49.423C301.038 48.1692 299.529 47.5424 297.765 47.5424C296 47.5424 294.468 48.1692 293.168 49.423C291.914 50.6767 291.287 52.209 291.287 54.02C291.287 55.8309 291.914 57.3632 293.168 58.617Z" fill="#fff"/>
<path fill-rule="evenodd" clip-rule="evenodd" d="M512.262 150L549.316 46.219H572.441L609.356 150H589.088L580.799 125.204H540.54L532.043 150H512.262ZM545.695 110.09H575.784L570.908 95.4627C569.376 90.68 567.797 85.6883 566.172 80.4876C564.593 75.287 562.829 69.413 560.879 62.8657C558.928 69.413 557.141 75.287 555.515 80.4876C553.89 85.6883 552.288 90.68 550.709 95.4627L545.695 110.09Z" fill="#fff"/>
<path d="M633.007 46.219V150H614.619V46.219H633.007Z" fill="#fff"/>
</svg>

