<svg width="499" height="200" viewBox="0 0 499 200" fill="none" xmlns="http://www.w3.org/2000/svg">
<path d="M174 0H128.81C118.517 0 108.645 4.0889 101.367 11.3672C94.0889 18.6455 90 28.5169 90 38.81V84H135.19C145.483 84 155.355 79.9111 162.633 72.6328C169.911 65.3545 174 55.4831 174 45.19V0Z" fill="#fff"/>
<path d="M49.57 84H84V49.57C84 41.7275 80.8846 34.2063 75.3391 28.6609C69.7937 23.1154 62.2725 20 54.43 20H20V54.43C20 58.3132 20.7649 62.1584 22.2509 65.7459C23.7369 69.3335 25.915 72.5933 28.6609 75.3391C31.4067 78.085 34.6665 80.2631 38.2541 81.7491C41.8416 83.2351 45.6868 84 49.57 84Z" fill="#fff"/>
<path d="M38.81 90H84V135.19C84 145.483 79.9111 155.355 72.6328 162.633C65.3545 169.911 55.4831 174 45.19 174H0V128.81C0 118.517 4.0889 108.645 11.3672 101.367C18.6455 94.0889 28.5169 90 38.81 90Z" fill="#fff"/>
<path d="M140.82 200H200V140.82C200 127.342 194.646 114.415 185.115 104.885C175.585 95.3542 162.658 90 149.18 90H90V149.18C90 162.658 95.3542 175.585 104.885 185.115C114.415 194.646 127.342 200 140.82 200Z" fill="#fff"/>
<path d="M291.549 62.2639C299.099 62.2639 305.211 56.125 305.211 48.5417C305.211 41.1389 299.099 35 291.549 35C284.178 35 278.065 41.1389 278.065 48.5417C278.065 56.125 284.178 62.2639 291.549 62.2639Z" fill="#fff"/>
<path d="M281.841 162.833V72.5556H301.436V162.833H281.841Z" fill="#fff"/>
<path d="M342.078 90.2499C337.404 77.2499 331.291 70.3888 320.325 70.3888C315.471 70.3888 311.876 71.6527 309.718 73.0971L308.999 74.5416L312.055 88.2638L313.314 88.8055C314.572 87.7222 316.37 87.361 317.808 87.5416C320.685 87.7222 323.022 90.611 326.078 98.0138L353.044 162.833H367.786L404.819 73.8194L404.1 72.5555H386.482L360.415 138.278L342.078 90.2499Z" fill="#fff"/>
<path fill-rule="evenodd" clip-rule="evenodd" d="M498 160.667L495.124 147.306L493.865 146.764C493.146 147.306 492.247 147.847 490.989 147.847C487.753 147.847 486.854 144.778 486.854 139.903V105.055C486.854 79.0555 464.742 70.3888 445.326 70.3888C429.866 70.3888 417.461 75.986 407.753 85.3749V86.8194L417.641 96.2083H419.079C425.371 90.0694 433.281 85.736 443.528 85.736C455.933 85.736 467.618 92.0555 467.618 105.055V110.111C461.146 107.764 453.596 105.958 443.888 105.958C421.776 105.958 403.798 115.167 403.798 135.208C403.798 154.708 420.877 165 439.394 165C451.259 165 462.405 160.667 470.135 153.264C472.472 160.667 478.405 165 486.494 165C490.989 165 494.764 163.736 497.281 161.931L498 160.667ZM467.618 123.472V130.153C467.618 142.792 455.753 150.556 443.349 150.556C433.101 150.556 423.394 145.5 423.394 135.208C423.394 125.458 432.203 119.319 446.405 119.319C455.214 119.319 462.944 121.667 467.618 123.472Z" fill="#fff"/>
<path d="M258.157 39.6944L240 42.4027V144.236C240 156.694 246.292 165 258.697 165C263.55 165 267.505 163.736 270.022 161.931L270.741 160.667L267.865 147.306L266.607 146.764C265.887 147.306 264.989 147.847 263.55 147.847C260.314 147.847 259.595 144.778 259.595 139.903V40.5972L258.157 39.6944Z" fill="#fff"/>
</svg>
