<svg width="92" height="108" viewBox="0 0 92 108" fill="none" xmlns="http://www.w3.org/2000/svg">
<g filter="url(#filter0_dddd_97_22)">
<circle cx="47" cy="71" r="36" fill="white"/>
</g>
<path d="M40.2 60.6V75" stroke="#FCA061" stroke-width="2.4" stroke-linecap="round" stroke-linejoin="round"/>
<path d="M54.6 67.8C56.5882 67.8 58.2 66.1882 58.2 64.2C58.2 62.2118 56.5882 60.6 54.6 60.6C52.6118 60.6 51 62.2118 51 64.2C51 66.1882 52.6118 67.8 54.6 67.8Z" stroke="#FCA061" stroke-width="2.4" stroke-linecap="round" stroke-linejoin="round"/>
<path d="M40.2 82.2C42.1882 82.2 43.8 80.5882 43.8 78.6C43.8 76.6118 42.1882 75 40.2 75C38.2118 75 36.6 76.6118 36.6 78.6C36.6 80.5882 38.2118 82.2 40.2 82.2Z" stroke="#FCA061" stroke-width="2.4" stroke-linecap="round" stroke-linejoin="round"/>
<path d="M54.6 67.8C54.6 70.6644 53.4621 73.4114 51.4368 75.4368C49.4114 77.4622 46.6643 78.6 43.8 78.6" stroke="#FCA061" stroke-width="2.4" stroke-linecap="round" stroke-linejoin="round"/>
<defs>
<filter id="filter0_dddd_97_22" x="0" y="0" width="92" height="108" filterUnits="userSpaceOnUse" color-interpolation-filters="sRGB">
<feFlood flood-opacity="0" result="BackgroundImageFix"/>
<feColorMatrix in="SourceAlpha" type="matrix" values="0 0 0 0 0 0 0 0 0 0 0 0 0 0 0 0 0 0 127 0" result="hardAlpha"/>
<feOffset dy="-2"/>
<feGaussianBlur stdDeviation="1.5"/>
<feColorMatrix type="matrix" values="0 0 0 0 0.988235 0 0 0 0 0.627451 0 0 0 0 0.384314 0 0 0 0.1 0"/>
<feBlend mode="normal" in2="BackgroundImageFix" result="effect1_dropShadow_97_22"/>
<feColorMatrix in="SourceAlpha" type="matrix" values="0 0 0 0 0 0 0 0 0 0 0 0 0 0 0 0 0 0 127 0" result="hardAlpha"/>
<feOffset dy="-6"/>
<feGaussianBlur stdDeviation="3"/>
<feColorMatrix type="matrix" values="0 0 0 0 0.988235 0 0 0 0 0.627451 0 0 0 0 0.384314 0 0 0 0.09 0"/>
<feBlend mode="normal" in2="effect1_dropShadow_97_22" result="effect2_dropShadow_97_22"/>
<feColorMatrix in="SourceAlpha" type="matrix" values="0 0 0 0 0 0 0 0 0 0 0 0 0 0 0 0 0 0 127 0" result="hardAlpha"/>
<feOffset dx="-1" dy="-14"/>
<feGaussianBlur stdDeviation="4.5"/>
<feColorMatrix type="matrix" values="0 0 0 0 0.988235 0 0 0 0 0.627451 0 0 0 0 0.384314 0 0 0 0.05 0"/>
<feBlend mode="normal" in2="effect2_dropShadow_97_22" result="effect3_dropShadow_97_22"/>
<feColorMatrix in="SourceAlpha" type="matrix" values="0 0 0 0 0 0 0 0 0 0 0 0 0 0 0 0 0 0 127 0" result="hardAlpha"/>
<feOffset dx="-1" dy="-25"/>
<feGaussianBlur stdDeviation="5"/>
<feColorMatrix type="matrix" values="0 0 0 0 0.988235 0 0 0 0 0.627451 0 0 0 0 0.384314 0 0 0 0.01 0"/>
<feBlend mode="normal" in2="effect3_dropShadow_97_22" result="effect4_dropShadow_97_22"/>
<feBlend mode="normal" in="SourceGraphic" in2="effect4_dropShadow_97_22" result="shape"/>
</filter>
</defs>
</svg>
